<?xml version="1.0" encoding="UTF-8" standalone="no"?>
<!-- Created with Inkscape (http://www.inkscape.org/) -->

<svg
   width="6.3499918mm"
   height="6.3496346mm"
   viewBox="0 0 6.3499925 6.3496346"
   version="1.1"
   id="svg8"
   sodipodi:docname="base.svg"
   inkscape:version="1.1.2 (0a00cf5339, 2022-02-04)"
   inkscape:export-filename="/home/carson/Xtra/Shock OS/menu-logos/96x96 places/start-here-symbolic.symbolic.png"
   inkscape:export-xdpi="25.417118"
   inkscape:export-ydpi="25.417118"
   xmlns:inkscape="http://www.inkscape.org/namespaces/inkscape"
   xmlns:sodipodi="http://sodipodi.sourceforge.net/DTD/sodipodi-0.dtd"
   xmlns="http://www.w3.org/2000/svg"
   xmlns:svg="http://www.w3.org/2000/svg"
   xmlns:rdf="http://www.w3.org/1999/02/22-rdf-syntax-ns#"
   xmlns:cc="http://creativecommons.org/ns#"
   xmlns:dc="http://purl.org/dc/elements/1.1/">
  <defs
     id="defs2" />
  <sodipodi:namedview
     id="base"
     pagecolor="#ffffff"
     bordercolor="#666666"
     borderopacity="1.0"
     inkscape:pageopacity="0.0"
     inkscape:pageshadow="2"
     inkscape:zoom="1.4"
     inkscape:cx="218.57143"
     inkscape:cy="88.571429"
     inkscape:document-units="mm"
     inkscape:current-layer="layer1"
     showgrid="false"
     inkscape:window-width="1920"
     inkscape:window-height="1008"
     inkscape:window-x="0"
     inkscape:window-y="0"
     inkscape:window-maximized="1"
     inkscape:pagecheckerboard="0" />
  <metadata
     id="metadata5">
    <rdf:RDF>
      <cc:Work
         rdf:about="">
        <dc:format>image/svg+xml</dc:format>
        <dc:type
           rdf:resource="http://purl.org/dc/dcmitype/StillImage" />
      </cc:Work>
    </rdf:RDF>
  </metadata>
  <g
     inkscape:label="Layer 1"
     inkscape:groupmode="layer"
     id="layer1"
     transform="translate(-28.096254,-188.19022)">
    <path
       style="fill:#000000;fill-opacity:1;stroke-width:0.273355;stroke-linecap:square;stroke-linejoin:round;stroke-miterlimit:4;stroke-dasharray:none"
       d="m 28.62544,194.53727 c -0.120437,-0.0245 -0.183857,-0.14942 -0.127613,-0.2514 0.0126,-0.0229 0.406597,-0.67555 0.87555,-1.45044 0.468954,-0.7749 0.84966,-1.41178 0.846013,-1.41531 -0.0037,-0.004 -0.439738,-0.0562 -0.969094,-0.11694 -0.529357,-0.0608 -0.981669,-0.11401 -1.005138,-0.11826 -0.0973,-0.0176 -0.169279,-0.12751 -0.143697,-0.21933 0.0073,-0.0265 0.03469,-0.0718 0.0607,-0.1008 0.02602,-0.029 0.521634,-0.63262 1.101376,-1.34145 0.905315,-1.10688 1.061168,-1.29187 1.104308,-1.31082 0.04793,-0.0211 0.125084,-0.0221 1.68298,-0.0223 1.139682,-1.4e-4 1.647456,0.004 1.68144,0.0128 0.0624,0.0167 0.112581,0.0656 0.132072,0.12841 0.03135,0.10115 0.04991,0.0807 -0.845226,0.93246 l -0.819741,0.78005 0.0592,0.004 c 0.03256,0.002 0.501562,-0.002 1.042221,-0.01 1.083245,-0.0151 1.033864,-0.0176 1.100411,0.0588 0.01846,0.0212 0.03704,0.052 0.04129,0.0683 0.01106,0.0426 -0.0033,0.11291 -0.03023,0.14815 -0.04174,0.0546 -5.653899,4.20994 -5.701431,4.22146 -0.0239,0.006 -0.06233,0.007 -0.08539,0.002 z m 2.419664,-2.17176 c 0.884355,-0.65583 1.837002,-1.36209 2.116989,-1.56946 0.585163,-0.43341 0.520971,-0.38447 0.513543,-0.39164 -0.0032,-0.003 -0.673248,0.003 -1.488927,0.0139 -0.815679,0.0107 -1.503014,0.016 -1.527412,0.0115 -0.05636,-0.0103 -0.118911,-0.0689 -0.137564,-0.12913 -0.0185,-0.0597 2.06e-4,-0.1253 0.04817,-0.16902 0.01894,-0.0172 0.576397,-0.37255 1.238809,-0.78955 0.662412,-0.417 1.209693,-0.76313 1.216182,-0.76919 0.0071,-0.007 -0.481947,-0.011 -1.24353,-0.011 H 30.52604 l -0.920643,1.12507 -0.920641,1.12508 1.041044,0.006 c 0.976464,0.005 1.043164,0.007 1.07523,0.0277 0.09028,0.0571 0.107189,0.16236 0.04362,0.2714 -0.02147,0.0368 -0.367892,0.611 -0.769813,1.27592 -0.401923,0.66493 -0.730768,1.21486 -0.730768,1.22209 0,0.007 0.02095,-0.002 0.04656,-0.0221 0.02561,-0.0194 0.770125,-0.57177 1.654479,-1.22761 z m 0.887769,-2.57433 c 0.157068,-0.14884 0.277196,-0.26644 0.266953,-0.26133 -0.03039,0.0151 -0.812216,0.50889 -0.825067,0.52105 -0.0073,0.007 0.04253,0.0111 0.130371,0.011 l 0.142168,-1.3e-4 0.285575,-0.27061 z"
       id="path1590" />
  </g>
</svg>
