<?xml version="1.0" encoding="UTF-8" standalone="no"?>
<!-- Created with Inkscape (http://www.inkscape.org/) -->

<svg
   width="561.13989mm"
   height="105.47717mm"
   viewBox="0 0 561.13989 105.47717"
   version="1.1"
   id="svg5"
   inkscape:version="1.1.2 (0a00cf5339, 2022-02-04)"
   sodipodi:docname="logo-text-version.svg"
   inkscape:export-filename="/home/carson/Xtra/Shock OS/6.0 Finlay/shockos-6.0-all/shock/logos/logo-text-256.png"
   inkscape:export-xdpi="96"
   inkscape:export-ydpi="96"
   xmlns:inkscape="http://www.inkscape.org/namespaces/inkscape"
   xmlns:sodipodi="http://sodipodi.sourceforge.net/DTD/sodipodi-0.dtd"
   xmlns="http://www.w3.org/2000/svg"
   xmlns:svg="http://www.w3.org/2000/svg">
  <sodipodi:namedview
     id="namedview7"
     pagecolor="#ffffff"
     bordercolor="#666666"
     borderopacity="1.0"
     inkscape:pageshadow="2"
     inkscape:pageopacity="0.0"
     inkscape:pagecheckerboard="0"
     inkscape:document-units="mm"
     showgrid="false"
     inkscape:zoom="0.36970398"
     inkscape:cx="1420.055"
     inkscape:cy="308.3548"
     inkscape:window-width="1920"
     inkscape:window-height="1012"
     inkscape:window-x="0"
     inkscape:window-y="0"
     inkscape:window-maximized="1"
     inkscape:current-layer="layer1" />
  <defs
     id="defs2" />
  <g
     inkscape:label="Layer 1"
     inkscape:groupmode="layer"
     id="layer1"
     transform="translate(175.56994,-95.761417)">
    <g
       id="g24313"
       transform="translate(-133.736,3.9116182)">
      <g
         inkscape:label="Layer 1"
         id="layer1-5"
         transform="translate(-69.931984,-87.417768)">
        <path
           style="fill:#000000;fill-opacity:1;stroke:#000000;stroke-width:1.72525;stroke-linecap:butt;stroke-linejoin:miter;stroke-miterlimit:4;stroke-dasharray:none;stroke-opacity:1"
           d="m 72.653289,194.92647 -42.47747,35.76379 46.459745,5.52255 -40.672177,47.29297 85.008373,-65.23787 -44.336196,6.25327 35.575186,-35.11719 z"
           id="path815"
           inkscape:connector-curvature="0"
           sodipodi:nodetypes="cccccccc" />
        <path
           style="fill:#ffe101;fill-opacity:1;stroke:#000000;stroke-width:1.72525;stroke-linecap:butt;stroke-linejoin:miter;stroke-miterlimit:4;stroke-dasharray:none;stroke-opacity:1"
           d="m 63.015119,189.23186 -32.654683,41.28635 h 36.636959 l -30.849379,52.81543 85.008354,-65.23797 -54.158975,0.73082 45.397975,-29.59463 z"
           id="path815-3"
           inkscape:connector-curvature="0" />
      </g>
      <path
         style="fill:#ffe101;fill-opacity:1;stroke:#000000;stroke-width:2;stroke-linecap:butt;stroke-linejoin:miter;stroke-miterlimit:4;stroke-dasharray:none;stroke-opacity:1"
         d="m 57.325826,98.745266 v 97.429304 l 13.799285,-33.51209 24.930381,-4.3418 17.226508,38.33025 -3.92378,-44.45102 -42.811946,-7.91579 z"
         id="path87" />
      <path
         id="path5615"
         style="fill:#ffff00;stroke:#000000;stroke-width:2;stroke-linecap:butt;stroke-linejoin:miter;stroke-miterlimit:4;stroke-dasharray:none;stroke-opacity:1"
         d="m 152.59223,133.889 -24.14788,17.10025 -3.10885,28.55691 21.53409,16.13959 25.64701,-13.11445 9.07438,-20.45043 -11.8799,-22.77587 z m 8.64857,16.23157 9.52707,19.6727 -26.36377,11.72435 -5.37124,-13.07104 7.55251,-13.67926 z" />
      <path
         style="fill:#ffff00;stroke:#000000;stroke-width:2;stroke-linecap:butt;stroke-linejoin:miter;stroke-miterlimit:4;stroke-dasharray:none;stroke-opacity:1"
         d="m 228.47715,147.86005 -12.70178,-10.00137 -21.29162,-3.92946 -8.28123,16.51772 3.73462,23.59038 13.92315,21.86693 23.13961,-6.01411 0.48527,-16.17693 -8.37518,5.33953 -3.08042,9.21143 -16.8732,-13.93055 -2.63645,-28.63415 14.5213,-0.0638 z"
         id="path5766" />
      <path
         style="fill:#ffff00;stroke:#000000;stroke-width:2;stroke-linecap:butt;stroke-linejoin:miter;stroke-miterlimit:4;stroke-dasharray:none;stroke-opacity:1"
         d="M 241.52308,91.954356 V 196.49054 l 8.11871,-34.63776 37.61247,34.73958 -35.21737,-52.06744 35.6316,-28.23737 -41.69305,18.01631 z"
         id="path6222" />
      <g
         inkscape:label="Layer 1"
         id="g24105"
         transform="translate(395.20747,-87.417768)">
        <path
           style="fill:#000000;fill-opacity:1;stroke:#000000;stroke-width:1.72525;stroke-linecap:butt;stroke-linejoin:miter;stroke-miterlimit:4;stroke-dasharray:none;stroke-opacity:1"
           d="m 72.653289,194.92647 -42.47747,35.76379 46.459745,5.52255 -40.672177,47.29297 85.008373,-65.23787 -44.336196,6.25327 35.575186,-35.11719 z"
           id="path24101"
           inkscape:connector-curvature="0"
           sodipodi:nodetypes="cccccccc" />
        <path
           style="fill:#ffe101;fill-opacity:1;stroke:#000000;stroke-width:1.72525;stroke-linecap:butt;stroke-linejoin:miter;stroke-miterlimit:4;stroke-dasharray:none;stroke-opacity:1"
           d="m 63.015119,189.23186 -32.654683,41.28635 h 36.636959 l -30.849379,52.81543 85.008354,-65.23797 -54.158975,0.73082 45.397975,-29.59463 z"
           id="path24103"
           inkscape:connector-curvature="0" />
      </g>
      <path
         id="path24220"
         style="fill:#ffff00;stroke:#000000;stroke-width:2;stroke-linecap:butt;stroke-linejoin:miter;stroke-miterlimit:4;stroke-dasharray:none;stroke-opacity:1"
         d="m 369.97218,100.30508 -37.0868,26.2629 -4.77463,43.85828 33.07249,24.78751 39.38919,-20.14144 13.93662,-31.40818 -18.24539,-34.97964 z m 13.28265,24.92877 14.63187,30.21373 -40.49001,18.00649 -8.24926,-20.07477 11.5993,-21.00888 z" />
    </g>
  </g>
</svg>
