<?xml version="1.0" encoding="UTF-8" standalone="no"?>
<!-- Created with Inkscape (http://www.inkscape.org/) -->

<svg
   width="25.4mm"
   height="25.399883mm"
   viewBox="0 0 25.400001 25.399882"
   version="1.1"
   id="svg8"
   sodipodi:docname="base.svg"
   inkscape:version="1.1.2 (0a00cf5339, 2022-02-04)"
   inkscape:export-filename="/home/carson/Xtra/Shock OS/menu-logos/96x96 places/start-here-symbolic.symbolic.png"
   inkscape:export-xdpi="25.417118"
   inkscape:export-ydpi="25.417118"
   xmlns:inkscape="http://www.inkscape.org/namespaces/inkscape"
   xmlns:sodipodi="http://sodipodi.sourceforge.net/DTD/sodipodi-0.dtd"
   xmlns="http://www.w3.org/2000/svg"
   xmlns:svg="http://www.w3.org/2000/svg"
   xmlns:rdf="http://www.w3.org/1999/02/22-rdf-syntax-ns#"
   xmlns:cc="http://creativecommons.org/ns#"
   xmlns:dc="http://purl.org/dc/elements/1.1/">
  <defs
     id="defs2" />
  <sodipodi:namedview
     id="base"
     pagecolor="#ffffff"
     bordercolor="#666666"
     borderopacity="1.0"
     inkscape:pageopacity="0.0"
     inkscape:pageshadow="2"
     inkscape:zoom="0.35"
     inkscape:cx="217.14286"
     inkscape:cy="431.42857"
     inkscape:document-units="mm"
     inkscape:current-layer="layer1"
     showgrid="false"
     inkscape:window-width="1920"
     inkscape:window-height="1008"
     inkscape:window-x="0"
     inkscape:window-y="0"
     inkscape:window-maximized="1"
     inkscape:pagecheckerboard="0" />
  <metadata
     id="metadata5">
    <rdf:RDF>
      <cc:Work
         rdf:about="">
        <dc:format>image/svg+xml</dc:format>
        <dc:type
           rdf:resource="http://purl.org/dc/dcmitype/StillImage" />
      </cc:Work>
    </rdf:RDF>
  </metadata>
  <g
     inkscape:label="Layer 1"
     inkscape:groupmode="layer"
     id="layer1"
     transform="translate(-28.096254,-188.19028)">
    <path
       style="fill:#000000;fill-opacity:1;stroke-width:1.09342;stroke-linecap:square;stroke-linejoin:round;stroke-miterlimit:4;stroke-dasharray:none"
       d="m 30.212996,213.57827 c -0.481743,-0.0979 -0.735425,-0.59768 -0.51045,-1.00563 0.0504,-0.0914 1.626387,-2.70218 3.5022,-5.80175 1.875813,-3.09957 3.398638,-5.64712 3.384054,-5.66121 -0.01458,-0.0141 -1.758952,-0.22459 -3.87638,-0.46776 -2.117428,-0.24317 -3.926674,-0.45606 -4.020547,-0.47308 -0.389205,-0.0706 -0.677118,-0.51001 -0.574791,-0.8773 0.02949,-0.10586 0.138759,-0.2873 0.242814,-0.40319 0.104055,-0.1159 2.086533,-2.5305 4.405505,-5.36579 3.62126,-4.42752 4.244671,-5.16751 4.417233,-5.24327 0.191709,-0.0842 0.500332,-0.0882 6.731921,-0.089 4.558724,-5.4e-4 6.589819,0.015 6.725756,0.0514 0.249613,0.067 0.450327,0.26212 0.528288,0.51363 0.125408,0.40456 0.199667,0.32265 -3.380903,3.72984 l -3.278964,3.12019 0.236815,0.0163 c 0.130247,0.009 2.006246,-0.008 4.168883,-0.0383 4.332979,-0.0601 4.135457,-0.0706 4.401644,0.23514 0.07385,0.0848 0.148171,0.20775 0.165154,0.27315 0.04425,0.17042 -0.01314,0.45164 -0.120949,0.59261 -0.166968,0.21833 -22.615599,16.83979 -22.805724,16.88586 -0.09561,0.0232 -0.249307,0.0268 -0.341559,0.008 z m 9.678659,-8.68703 c 3.537421,-2.62332 7.348005,-5.44836 8.467958,-6.27788 2.340651,-1.73364 2.083884,-1.53783 2.054172,-1.56655 -0.01293,-0.0125 -2.692995,0.0125 -5.955712,0.0557 -3.262718,0.0431 -6.012057,0.0639 -6.109645,0.0461 -0.225457,-0.041 -0.475647,-0.27582 -0.550259,-0.51651 -0.07403,-0.23885 8.25e-4,-0.5012 0.192675,-0.67608 0.07573,-0.069 2.305586,-1.49018 4.955235,-3.15818 2.649652,-1.668 4.838779,-3.05254 4.864731,-3.07676 0.02863,-0.0267 -1.927787,-0.044 -4.974123,-0.044 H 37.81538 l -3.682569,4.50027 -3.682567,4.50029 4.164178,0.024 c 3.905858,0.0225 4.172655,0.0294 4.30092,0.11061 0.361141,0.22875 0.428755,0.64944 0.174474,1.08558 -0.0859,0.14734 -1.471569,2.44401 -3.079254,5.1037 -1.60769,2.65968 -2.92307,4.85943 -2.92307,4.88833 0,0.0289 0.08381,-0.0108 0.186245,-0.0882 0.102435,-0.0774 3.0805,-2.28709 6.617918,-4.91042 z m 3.551078,-10.29735 c 0.628267,-0.59535 1.108782,-1.06574 1.067809,-1.04532 -0.121563,0.0606 -3.248866,2.03557 -3.300268,2.08422 -0.02915,0.0276 0.170118,0.0444 0.521484,0.0441 l 0.568672,-5.3e-4 1.142303,-1.08244 z"
       id="path1590" />
  </g>
</svg>
