<?xml version="1.0" encoding="UTF-8" standalone="no"?>
<!-- Created with Inkscape (http://www.inkscape.org/) -->

<svg
   width="4.2333512mm"
   height="4.2332106mm"
   viewBox="0 0 4.2333517 4.2332105"
   version="1.1"
   id="svg8"
   sodipodi:docname="base.svg"
   inkscape:version="1.1.2 (0a00cf5339, 2022-02-04)"
   inkscape:export-filename="/home/carson/Xtra/Shock OS/menu-logos/96x96 places/start-here-symbolic.symbolic.png"
   inkscape:export-xdpi="25.417118"
   inkscape:export-ydpi="25.417118"
   xmlns:inkscape="http://www.inkscape.org/namespaces/inkscape"
   xmlns:sodipodi="http://sodipodi.sourceforge.net/DTD/sodipodi-0.dtd"
   xmlns="http://www.w3.org/2000/svg"
   xmlns:svg="http://www.w3.org/2000/svg"
   xmlns:rdf="http://www.w3.org/1999/02/22-rdf-syntax-ns#"
   xmlns:cc="http://creativecommons.org/ns#"
   xmlns:dc="http://purl.org/dc/elements/1.1/">
  <defs
     id="defs2" />
  <sodipodi:namedview
     id="base"
     pagecolor="#ffffff"
     bordercolor="#666666"
     borderopacity="1.0"
     inkscape:pageopacity="0.0"
     inkscape:pageshadow="2"
     inkscape:zoom="2.8"
     inkscape:cx="75.357143"
     inkscape:cy="60"
     inkscape:document-units="mm"
     inkscape:current-layer="layer1"
     showgrid="false"
     inkscape:window-width="1920"
     inkscape:window-height="1008"
     inkscape:window-x="0"
     inkscape:window-y="0"
     inkscape:window-maximized="1"
     inkscape:pagecheckerboard="0" />
  <metadata
     id="metadata5">
    <rdf:RDF>
      <cc:Work
         rdf:about="">
        <dc:format>image/svg+xml</dc:format>
        <dc:type
           rdf:resource="http://purl.org/dc/dcmitype/StillImage" />
      </cc:Work>
    </rdf:RDF>
  </metadata>
  <g
     inkscape:label="Layer 1"
     inkscape:groupmode="layer"
     id="layer1"
     transform="translate(-28.096249,-188.1903)">
    <path
       style="fill:#000000;fill-opacity:1;stroke-width:0.182237;stroke-linecap:square;stroke-linejoin:round;stroke-miterlimit:4;stroke-dasharray:none"
       d="m 28.449045,192.4216 c -0.08029,-0.0164 -0.122572,-0.0996 -0.08508,-0.1676 0.0084,-0.0153 0.271065,-0.45037 0.583701,-0.96697 0.312636,-0.51659 0.56644,-0.94118 0.564009,-0.94353 -0.0025,-0.003 -0.293159,-0.0375 -0.646064,-0.078 -0.352904,-0.0405 -0.654445,-0.076 -0.670091,-0.0788 -0.06487,-0.0117 -0.112853,-0.085 -0.0958,-0.14622 0.0049,-0.0177 0.02313,-0.0479 0.04047,-0.0672 0.01734,-0.0193 0.347756,-0.42175 0.734251,-0.8943 0.603543,-0.73792 0.707445,-0.86125 0.736205,-0.87388 0.03196,-0.014 0.08339,-0.0148 1.121987,-0.0148 0.759788,-1e-4 1.098304,0.003 1.12096,0.009 0.0416,0.0111 0.07505,0.0437 0.08805,0.0856 0.0209,0.0674 0.03327,0.0538 -0.563484,0.62164 l -0.546494,0.52003 0.03947,0.003 c 0.02171,10e-4 0.334375,-0.001 0.694815,-0.007 0.722163,-0.0101 0.689243,-0.0117 0.733607,0.0392 0.01231,0.0141 0.02469,0.0347 0.02753,0.0455 0.0074,0.0284 -0.0022,0.0753 -0.02015,0.0988 -0.02783,0.0364 -3.769268,2.80662 -3.800956,2.8143 -0.01593,0.004 -0.04156,0.004 -0.05692,0.001 z m 1.613109,-1.44785 c 0.589571,-0.43721 1.224669,-0.90805 1.411327,-1.0463 0.390109,-0.28894 0.347314,-0.25631 0.342362,-0.26109 -0.0021,-0.002 -0.448832,0.002 -0.992618,0.009 -0.543786,0.007 -1.00201,0.0107 -1.018275,0.008 -0.03757,-0.007 -0.07927,-0.046 -0.09171,-0.0861 -0.01234,-0.0398 1.37e-4,-0.0835 0.03212,-0.11267 0.01262,-0.0115 0.384264,-0.24837 0.825873,-0.52637 0.441608,-0.278 0.806462,-0.50876 0.810788,-0.51279 0.0047,-0.004 -0.321298,-0.007 -0.82902,-0.007 h -0.836883 l -0.613762,0.75004 -0.613761,0.75006 0.694029,0.004 c 0.650977,0.004 0.695443,0.004 0.71682,0.0185 0.06019,0.038 0.07146,0.10824 0.02908,0.18093 -0.01431,0.0245 -0.245261,0.40733 -0.513209,0.85062 -0.267948,0.44328 -0.487178,0.8099 -0.487178,0.81472 0,0.004 0.01396,-0.001 0.03104,-0.0148 0.01708,-0.0129 0.513417,-0.38118 1.102987,-0.81841 z M 30.654,189.25754 c 0.104713,-0.0992 0.184798,-0.17763 0.17797,-0.17422 -0.02026,0.01 -0.541478,0.33926 -0.550046,0.34737 -0.0049,0.004 0.02836,0.007 0.08692,0.007 l 0.09478,-8e-5 z"
       id="path1590" />
  </g>
</svg>
