<?xml version="1.0" encoding="UTF-8" standalone="no"?>
<!-- Created with Inkscape (http://www.inkscape.org/) -->

<svg
   width="96.043755mm"
   height="96.043678mm"
   viewBox="0 0 96.04376 96.043673"
   version="1.1"
   id="svg8"
   sodipodi:docname="base.svg"
   inkscape:version="1.1.2 (0a00cf5339, 2022-02-04)"
   inkscape:export-filename="/home/carson/Xtra/Shock OS/menu-logos/96x96 places/start-here-symbolic.symbolic.png"
   inkscape:export-xdpi="25.417118"
   inkscape:export-ydpi="25.417118"
   xmlns:inkscape="http://www.inkscape.org/namespaces/inkscape"
   xmlns:sodipodi="http://sodipodi.sourceforge.net/DTD/sodipodi-0.dtd"
   xmlns="http://www.w3.org/2000/svg"
   xmlns:svg="http://www.w3.org/2000/svg"
   xmlns:rdf="http://www.w3.org/1999/02/22-rdf-syntax-ns#"
   xmlns:cc="http://creativecommons.org/ns#"
   xmlns:dc="http://purl.org/dc/elements/1.1/">
  <defs
     id="defs2" />
  <sodipodi:namedview
     id="base"
     pagecolor="#ffffff"
     bordercolor="#666666"
     borderopacity="1.0"
     inkscape:pageopacity="0.0"
     inkscape:pageshadow="2"
     inkscape:zoom="0.35"
     inkscape:cx="217.14286"
     inkscape:cy="431.42857"
     inkscape:document-units="mm"
     inkscape:current-layer="layer1"
     showgrid="false"
     inkscape:window-width="1920"
     inkscape:window-height="1008"
     inkscape:window-x="0"
     inkscape:window-y="0"
     inkscape:window-maximized="1"
     inkscape:pagecheckerboard="0" />
  <metadata
     id="metadata5">
    <rdf:RDF>
      <cc:Work
         rdf:about="">
        <dc:format>image/svg+xml</dc:format>
        <dc:type
           rdf:resource="http://purl.org/dc/dcmitype/StillImage" />
      </cc:Work>
    </rdf:RDF>
  </metadata>
  <g
     inkscape:label="Layer 1"
     inkscape:groupmode="layer"
     id="layer1"
     transform="translate(-28.096255,-188.19028)">
    <path
       style="fill:#000000;fill-opacity:1;stroke-width:4.13448;stroke-linecap:square;stroke-linejoin:round;stroke-miterlimit:4;stroke-dasharray:none"
       d="m 36.100185,284.1886 c -1.82159,-0.3702 -2.780828,-2.25997 -1.930142,-3.80254 0.190569,-0.34554 6.14978,-10.21759 13.242693,-21.93786 7.092921,-11.72026 12.851104,-21.35318 12.795959,-21.40646 -0.05513,-0.0533 -6.65104,-0.84921 -14.657563,-1.7687 -8.006528,-0.91948 -14.84774,-1.72447 -15.202694,-1.78883 -1.471681,-0.26684 -2.560351,-1.92847 -2.17343,-3.31728 0.11152,-0.40029 0.524684,-1.08636 0.918142,-1.52459 0.393458,-0.43824 7.8897,-9.56845 16.658314,-20.28937 13.692892,-16.74158 16.050166,-19.53967 16.702663,-19.82613 0.7249,-0.31825 1.891882,-0.33367 25.455075,-0.33651 17.237678,-0.002 24.917758,0.0566 25.431768,0.19463 0.94385,0.25328 1.7028,0.99118 1.99759,1.94219 0.4742,1.52975 0.75499,1.21999 -12.78404,14.10343 l -12.398584,11.79825 0.895458,0.0615 c 0.492495,0.0338 7.586118,-0.0312 15.763586,-0.14456 16.38408,-0.22708 15.6372,-0.26698 16.64372,0.88915 0.27925,0.32076 0.56027,0.78554 0.62449,1.03285 0.16733,0.64438 -0.0497,1.70773 -0.45734,2.24079 -0.63135,0.82557 -85.515239,63.67548 -86.234146,63.84965 -0.361509,0.0876 -0.942693,0.10126 -1.291519,0.0303 z m 36.597428,-32.8478 c 13.375873,-9.91943 27.784647,-20.60163 32.019467,-23.73824 8.85059,-6.55534 7.87969,-5.81492 7.76734,-5.92352 -0.0489,-0.0472 -10.18289,0.0474 -22.52004,0.21049 -12.33715,0.163 -22.733087,0.24151 -23.102094,0.17446 -0.852508,-0.15492 -1.798539,-1.04293 -2.080667,-1.95305 -0.279948,-0.90314 0.003,-1.89516 0.728551,-2.55642 0.286361,-0.2609 8.718,-5.63474 18.736985,-11.94188 10.018995,-6.30713 18.296635,-11.54242 18.394765,-11.63399 0.10824,-0.10099 -7.289446,-0.16647 -18.808404,-0.16647 H 64.846698 l -13.924711,17.01668 -13.924709,17.01669 15.745796,0.0907 c 14.769029,0.0851 15.777856,0.11107 16.262858,0.41826 1.365563,0.86495 1.621229,2.45568 0.659731,4.10485 -0.324829,0.55714 -5.564375,9.24139 -11.643434,19.29834 -6.079075,10.05693 -11.052856,18.37475 -11.052856,18.48402 0,0.10928 0.316908,-0.0408 0.70424,-0.33347 0.387331,-0.29269 11.648138,-8.64806 25.024,-18.5675 z M 86.12513,212.40391 c 2.375633,-2.25114 4.19258,-4.0298 4.03765,-3.95259 -0.45966,0.2291 -12.284776,7.69698 -12.479136,7.88093 -0.110239,0.10432 0.643255,0.16803 1.97186,0.16674 l 2.15029,-0.002 4.319336,-4.09298 z"
       id="path1590" />
  </g>
</svg>
