<?xml version="1.0" encoding="UTF-8" standalone="no"?>
<!-- Created with Inkscape (http://www.inkscape.org/) -->

<svg
   width="5.8208394mm"
   height="5.8206711mm"
   viewBox="0 0 5.82084 5.820671"
   version="1.1"
   id="svg8"
   sodipodi:docname="base.svg"
   inkscape:version="1.1.2 (0a00cf5339, 2022-02-04)"
   inkscape:export-filename="/home/carson/Xtra/Shock OS/menu-logos/96x96 places/start-here-symbolic.symbolic.png"
   inkscape:export-xdpi="25.417118"
   inkscape:export-ydpi="25.417118"
   xmlns:inkscape="http://www.inkscape.org/namespaces/inkscape"
   xmlns:sodipodi="http://sodipodi.sourceforge.net/DTD/sodipodi-0.dtd"
   xmlns="http://www.w3.org/2000/svg"
   xmlns:svg="http://www.w3.org/2000/svg"
   xmlns:rdf="http://www.w3.org/1999/02/22-rdf-syntax-ns#"
   xmlns:cc="http://creativecommons.org/ns#"
   xmlns:dc="http://purl.org/dc/elements/1.1/">
  <defs
     id="defs2" />
  <sodipodi:namedview
     id="base"
     pagecolor="#ffffff"
     bordercolor="#666666"
     borderopacity="1.0"
     inkscape:pageopacity="0.0"
     inkscape:pageshadow="2"
     inkscape:zoom="2.8"
     inkscape:cx="75.357143"
     inkscape:cy="60"
     inkscape:document-units="mm"
     inkscape:current-layer="layer1"
     showgrid="false"
     inkscape:window-width="1920"
     inkscape:window-height="1008"
     inkscape:window-x="0"
     inkscape:window-y="0"
     inkscape:window-maximized="1"
     inkscape:pagecheckerboard="0" />
  <metadata
     id="metadata5">
    <rdf:RDF>
      <cc:Work
         rdf:about="">
        <dc:format>image/svg+xml</dc:format>
        <dc:type
           rdf:resource="http://purl.org/dc/dcmitype/StillImage" />
      </cc:Work>
    </rdf:RDF>
  </metadata>
  <g
     inkscape:label="Layer 1"
     inkscape:groupmode="layer"
     id="layer1"
     transform="translate(-28.096254,-188.19026)">
    <path
       style="fill:#000000;fill-opacity:1;stroke-width:0.250576;stroke-linecap:square;stroke-linejoin:round;stroke-miterlimit:4;stroke-dasharray:none"
       d="m 28.581342,194.00836 c -0.110401,-0.0225 -0.168536,-0.13697 -0.116979,-0.23045 0.01155,-0.021 0.372714,-0.61926 0.802589,-1.32958 0.429875,-0.71032 0.778856,-1.29413 0.775513,-1.29736 -0.0034,-0.004 -0.403094,-0.0515 -0.888338,-0.1072 -0.485244,-0.0557 -0.899864,-0.10451 -0.921377,-0.1084 -0.08919,-0.0161 -0.155173,-0.11689 -0.131723,-0.20106 0.0067,-0.0243 0.0318,-0.0658 0.05564,-0.0924 0.02385,-0.0266 0.478165,-0.5799 1.009596,-1.22966 0.829873,-1.01464 0.972738,-1.18422 1.012284,-1.20159 0.04394,-0.0193 0.11466,-0.0203 1.542733,-0.0204 1.04471,-1.3e-4 1.51017,0.004 1.541322,0.0117 0.0572,0.0153 0.1032,0.0601 0.121066,0.11771 0.02874,0.0927 0.04575,0.074 -0.774791,0.85476 l -0.75143,0.71505 0.05427,0.004 c 0.02985,0.002 0.459766,-0.002 0.955371,-0.009 0.992976,-0.0139 0.94771,-0.0161 1.008711,0.0539 0.01692,0.0194 0.03395,0.0477 0.03785,0.0626 0.01014,0.0391 -0.003,0.1035 -0.02771,0.13581 -0.03826,0.05 -5.182748,3.85911 -5.226319,3.86967 -0.02191,0.005 -0.05714,0.006 -0.07827,0.002 z m 2.218028,-1.99079 c 0.81066,-0.60117 1.683921,-1.24858 1.940576,-1.43867 0.5364,-0.39729 0.477557,-0.35243 0.470748,-0.359 -0.0029,-0.003 -0.617145,0.003 -1.364851,0.0127 -0.747707,0.01 -1.377765,0.0147 -1.40013,0.0105 -0.05166,-0.009 -0.109002,-0.0632 -0.1261,-0.11837 -0.01696,-0.0547 1.89e-4,-0.11486 0.04416,-0.15493 0.01736,-0.0158 0.528364,-0.34151 1.135576,-0.72376 0.607212,-0.38225 1.108887,-0.69954 1.114835,-0.70509 0.0065,-0.006 -0.441785,-0.0101 -1.139904,-0.0101 h -1.150715 l -0.843924,1.03131 -0.843922,1.03133 0.954291,0.005 c 0.895094,0.005 0.956235,0.006 0.985629,0.0254 0.08276,0.0523 0.09826,0.14883 0.03999,0.24878 -0.01968,0.0337 -0.337234,0.56008 -0.705663,1.1696 -0.368429,0.60952 -0.669871,1.11362 -0.669871,1.12025 0,0.006 0.0192,-0.002 0.04268,-0.0203 0.02348,-0.0178 0.705949,-0.52413 1.516608,-1.12531 z m 0.813789,-2.3598 c 0.14398,-0.13644 0.254097,-0.24424 0.244708,-0.23955 -0.02786,0.0138 -0.744533,0.46648 -0.756313,0.47763 -0.0067,0.006 0.03899,0.0102 0.119507,0.0101 l 0.130321,-1.2e-4 z"
       id="path1590" />
  </g>
</svg>
