<?xml version="1.0" encoding="UTF-8" standalone="no"?>
<svg
   inkscape:export-ydpi="96"
   inkscape:export-xdpi="96"
   width="23.999279"
   height="23.99967"
   id="svg11300"
   sodipodi:version="0.32"
   inkscape:version="1.1.2 (0a00cf5339, 2022-02-04)"
   sodipodi:docname="messaging-app.svg"
   inkscape:output_extension="org.inkscape.output.svg.inkscape"
   version="1.0"
   style="display:inline;enable-background:new"
   inkscape:export-filename="C:\Users\sblav\Pictures\vertical oblong template.png"
   xmlns:inkscape="http://www.inkscape.org/namespaces/inkscape"
   xmlns:sodipodi="http://sodipodi.sourceforge.net/DTD/sodipodi-0.dtd"
   xmlns:xlink="http://www.w3.org/1999/xlink"
   xmlns="http://www.w3.org/2000/svg"
   xmlns:svg="http://www.w3.org/2000/svg"
   xmlns:rdf="http://www.w3.org/1999/02/22-rdf-syntax-ns#"
   xmlns:cc="http://creativecommons.org/ns#"
   xmlns:dc="http://purl.org/dc/elements/1.1/">
  <title
     id="title3004">Yaru Icon Theme Template</title>
  <sodipodi:namedview
     stroke="#ef2929"
     fill="#f57900"
     id="base"
     pagecolor="#ffffff"
     bordercolor="#000000"
     borderopacity="0.25490196"
     inkscape:pageopacity="0"
     inkscape:pageshadow="2"
     inkscape:zoom="11.313708"
     inkscape:cx="25.455844"
     inkscape:cy="12.020815"
     inkscape:current-layer="layer5"
     showgrid="false"
     inkscape:grid-bbox="true"
     inkscape:document-units="px"
     inkscape:showpageshadow="false"
     inkscape:window-width="1920"
     inkscape:window-height="1008"
     inkscape:window-x="0"
     inkscape:window-y="0"
     width="400px"
     height="300px"
     inkscape:snap-nodes="true"
     inkscape:snap-bbox="true"
     gridtolerance="10000"
     inkscape:object-nodes="true"
     inkscape:snap-grids="true"
     showguides="true"
     inkscape:guide-bbox="true"
     inkscape:window-maximized="1"
     inkscape:bbox-paths="true"
     inkscape:snap-bbox-midpoints="true"
     inkscape:snap-global="true"
     inkscape:object-paths="true"
     inkscape:snap-intersection-paths="true"
     inkscape:snap-smooth-nodes="true"
     inkscape:pagecheckerboard="false"
     showborder="false"
     inkscape:document-rotation="0"
     inkscape:deskcolor="#d1d1d1">
    <inkscape:grid
       spacingy="1"
       spacingx="1"
       id="grid5883"
       type="xygrid"
       enabled="true"
       visible="true"
       empspacing="4"
       snapvisiblegridlinesonly="true"
       originx="-320.00039"
       originy="-188.00048" />
    <inkscape:grid
       type="xygrid"
       id="grid11592"
       empspacing="2"
       visible="true"
       enabled="false"
       spacingx="0.5"
       spacingy="0.5"
       color="#ff0000"
       opacity="0.1254902"
       empcolor="#ff0000"
       empopacity="0.25098039"
       snapvisiblegridlinesonly="true"
       originx="-320.00039"
       originy="-188.00048" />
  </sodipodi:namedview>
  <defs
     id="defs3">
    <linearGradient
       inkscape:collect="always"
       id="linearGradient927">
      <stop
         style="stop-color:#ffffff;stop-opacity:1;"
         offset="0"
         id="stop923" />
      <stop
         id="stop933"
         offset="0.125"
         style="stop-color:#ffffff;stop-opacity:0.09803922" />
      <stop
         id="stop931"
         offset="0.92500001"
         style="stop-color:#ffffff;stop-opacity:0.09803922" />
      <stop
         style="stop-color:#ffffff;stop-opacity:0.49803922"
         offset="1"
         id="stop925" />
    </linearGradient>
    <linearGradient
       inkscape:collect="always"
       xlink:href="#linearGradient2808"
       id="linearGradient1690"
       x1="319.9993"
       y1="211.99928"
       x2="343.9993"
       y2="187.99928"
       gradientUnits="userSpaceOnUse"
       gradientTransform="rotate(90,331.99929,199.99999)" />
    <linearGradient
       inkscape:collect="always"
       xlink:href="#linearGradient927"
       id="linearGradient1690-9"
       x1="320.9993"
       y1="199.99928"
       x2="342.9993"
       y2="199.99928"
       gradientUnits="userSpaceOnUse"
       gradientTransform="rotate(90,331.99929,199.99999)" />
    <linearGradient
       id="linearGradient2808"
       inkscape:collect="always">
      <stop
         style="stop-color:#f4843f;stop-opacity:1"
         offset="0"
         id="stop2804" />
      <stop
         style="stop-color:#f8ae34;stop-opacity:1"
         offset="1"
         id="stop2806" />
    </linearGradient>
  </defs>
  <metadata
     id="metadata4">
    <rdf:RDF>
      <cc:Work
         rdf:about="">
        <dc:format>image/svg+xml</dc:format>
        <dc:type
           rdf:resource="http://purl.org/dc/dcmitype/StillImage" />
        <dc:creator>
          <cc:Agent>
            <dc:title>Yaru Team, based on the Suru template by Sam Hewitt and original Suru designs by Matthieu James</dc:title>
          </cc:Agent>
        </dc:creator>
        <dc:source />
        <cc:license
           rdf:resource="http://creativecommons.org/licenses/by-sa/4.0/" />
        <dc:title>Yaru Icon Theme Template</dc:title>
        <dc:subject>
          <rdf:Bag />
        </dc:subject>
        <dc:date />
        <dc:rights>
          <cc:Agent>
            <dc:title />
          </cc:Agent>
        </dc:rights>
        <dc:publisher>
          <cc:Agent>
            <dc:title />
          </cc:Agent>
        </dc:publisher>
        <dc:identifier />
        <dc:relation />
        <dc:language />
        <dc:coverage />
        <dc:description />
        <dc:contributor>
          <cc:Agent>
            <dc:title />
          </cc:Agent>
        </dc:contributor>
      </cc:Work>
      <cc:Work
         rdf:about="">
        <dc:format>image/svg+xml</dc:format>
        <dc:type
           rdf:resource="http://purl.org/dc/dcmitype/StillImage" />
      </cc:Work>
      <cc:License
         rdf:about="http://creativecommons.org/licenses/by-sa/4.0/">
        <cc:permits
           rdf:resource="http://creativecommons.org/ns#Reproduction" />
        <cc:permits
           rdf:resource="http://creativecommons.org/ns#Distribution" />
        <cc:requires
           rdf:resource="http://creativecommons.org/ns#Notice" />
        <cc:requires
           rdf:resource="http://creativecommons.org/ns#Attribution" />
        <cc:permits
           rdf:resource="http://creativecommons.org/ns#DerivativeWorks" />
        <cc:requires
           rdf:resource="http://creativecommons.org/ns#ShareAlike" />
      </cc:License>
    </rdf:RDF>
  </metadata>
  <g
     style="display:inline"
     inkscape:groupmode="layer"
     inkscape:label="Icon"
     id="layer1"
     transform="translate(-320.00039,-188.00048)">
    <g
       style="display:none"
       inkscape:label="Baseplate"
       id="layer7"
       inkscape:groupmode="layer">
      <text
         y="-8.2548828"
         xml:space="preserve"
         x="19.006836"
         style="font-style:normal;font-variant:normal;font-weight:normal;font-stretch:normal;line-height:0%;font-family:'DejaVu Sans';-inkscape-font-specification:'DejaVu Sans';display:inline;fill:#000000;fill-opacity:1;stroke:none;enable-background:new"
         inkscape:label="context"
         id="context"><tspan
           style="font-style:normal;font-variant:normal;font-weight:normal;font-stretch:normal;font-size:18px;line-height:1.25;font-family:'DejaVu Sans';-inkscape-font-specification:'DejaVu Sans'"
           y="-8.2548828"
           x="19.006836"
           sodipodi:role="line"
           id="tspan3933">apps</tspan></text>
      <text
         y="-8.2548828"
         xml:space="preserve"
         x="146.48828"
         style="font-style:normal;font-variant:normal;font-weight:bold;font-stretch:normal;line-height:0%;font-family:'DejaVu Sans';-inkscape-font-specification:'DejaVu Sans Bold';text-align:start;writing-mode:lr-tb;text-anchor:start;display:inline;fill:#000000;fill-opacity:1;stroke:none;enable-background:new"
         inkscape:label="icon-name"
         id="icon-name"><tspan
           style="font-style:normal;font-variant:normal;font-weight:bold;font-stretch:normal;font-size:18px;line-height:1.25;font-family:'DejaVu Sans';-inkscape-font-specification:'DejaVu Sans Bold'"
           y="-8.2548828"
           x="146.48828"
           sodipodi:role="line"
           id="tspan3937">messaging-app</tspan></text>
      <rect
         style="display:inline;overflow:visible;visibility:visible;fill:#cdcdcd;fill-opacity:1;fill-rule:nonzero;stroke:none;stroke-width:2;marker:none;enable-background:accumulate"
         id="rect16x16"
         width="16"
         height="16"
         x="320"
         y="236"
         inkscape:label="16x16" />
      <rect
         style="display:inline;overflow:visible;visibility:visible;fill:#cdcdcd;fill-opacity:1;fill-rule:nonzero;stroke:none;stroke-width:2;marker:none;enable-background:accumulate"
         id="rect24x24"
         width="24"
         height="24"
         x="320"
         y="188"
         inkscape:label="24x24" />
      <rect
         style="display:inline;overflow:visible;visibility:visible;fill:#cdcdcd;fill-opacity:1;fill-rule:nonzero;stroke:none;stroke-width:2;marker:none;enable-background:accumulate"
         id="rect32x32"
         width="32"
         height="32"
         x="320"
         y="132"
         inkscape:label="32x32" />
      <rect
         inkscape:label="48x48"
         y="60"
         x="320"
         height="48"
         width="48"
         id="rect48x48"
         style="display:inline;overflow:visible;visibility:visible;fill:#cdcdcd;fill-opacity:1;fill-rule:nonzero;stroke:none;stroke-width:2;marker:none;enable-background:accumulate" />
      <rect
         style="display:inline;overflow:visible;visibility:visible;fill:#cdcdcd;fill-opacity:1;fill-rule:nonzero;stroke:none;stroke-width:2;marker:none;enable-background:accumulate"
         id="rect3951"
         width="256"
         height="256"
         x="24"
         y="28"
         inkscape:label="48x48" />
    </g>
    <g
       inkscape:groupmode="layer"
       id="layer8"
       inkscape:label="Backgrounds"
       style="display:inline">
      <path
         style="color:#000000;font-style:normal;font-variant:normal;font-weight:normal;font-stretch:normal;font-size:medium;line-height:normal;font-family:sans-serif;font-variant-ligatures:normal;font-variant-position:normal;font-variant-caps:normal;font-variant-numeric:normal;font-variant-alternates:normal;font-feature-settings:normal;text-indent:0;text-align:start;text-decoration:none;text-decoration-line:none;text-decoration-style:solid;text-decoration-color:#000000;letter-spacing:normal;word-spacing:normal;text-transform:none;writing-mode:lr-tb;direction:ltr;text-orientation:mixed;dominant-baseline:auto;baseline-shift:baseline;text-anchor:start;white-space:normal;shape-padding:0;clip-rule:nonzero;display:inline;overflow:visible;visibility:visible;opacity:0.1;isolation:auto;mix-blend-mode:normal;color-interpolation:sRGB;color-interpolation-filters:linearRGB;solid-color:#000000;solid-opacity:1;vector-effect:none;fill:#000000;fill-opacity:1;fill-rule:nonzero;stroke:none;stroke-width:2;stroke-linecap:butt;stroke-linejoin:miter;stroke-miterlimit:4;stroke-dasharray:none;stroke-dashoffset:0;stroke-opacity:1;marker:none;color-rendering:auto;image-rendering:auto;shape-rendering:auto;text-rendering:auto;enable-background:accumulate"
         d="m 326.45275,189.00048 c -1.2321,0 -2.21668,0.0221 -3.06999,0.14144 -0.85332,0.11937 -1.62809,0.35533 -2.21066,0.83967 -0.58256,0.48436 -0.86983,1.13381 -1.01188,1.84587 -0.14202,0.71207 -0.16501,1.53239 -0.15897,2.56202 v 7.61066 4.6143 c -0.006,1.02762 0.0171,1.84735 0.15897,2.55843 0.14203,0.71208 0.42931,1.36152 1.01188,1.84587 0.58258,0.48434 1.35734,0.7203 2.21066,0.83967 0.85331,0.11936 1.83789,0.14144 3.06999,0.14144 h 11.09542 c 1.2321,0 2.21381,-0.022 3.0657,-0.14144 0.85187,-0.11947 1.62795,-0.35683 2.2085,-0.84146 0.58057,-0.48464 0.86451,-1.13152 1.00758,-1.84228 0.14307,-0.71077 0.16972,-1.5314 0.16972,-2.56023 v -4.61429 -7.61425 c 0,-1.02883 -0.0266,-1.84946 -0.16972,-2.56023 -0.14307,-0.71076 -0.42701,-1.35765 -1.00758,-1.84228 -0.58055,-0.48464 -1.35661,-0.722 -2.2085,-0.84147 -0.8519,-0.11947 -1.83359,-0.14144 -3.0657,-0.14144 z"
         id="path995"
         inkscape:connector-curvature="0"
         sodipodi:nodetypes="sccccccccssscccscscccss" />
      <path
         sodipodi:nodetypes="scccssscsss"
         inkscape:connector-curvature="0"
         id="path914"
         d="m 326.17688,188.49945 c -5.14666,0 -5.70043,0.43262 -5.67521,4.65309 v 5.84793 7.84761 c -0.0253,4.22046 0.52855,4.65307 5.67521,4.65307 h 11.64568 c 5.14665,0 5.67521,-0.43255 5.67521,-4.65307 v -7.84761 -5.84793 c 0,-4.22051 -0.52857,-4.65309 -5.67522,-4.65309 z"
         style="color:#000000;display:inline;overflow:visible;visibility:visible;fill:url(#linearGradient1690);fill-opacity:1;fill-rule:nonzero;stroke:none;stroke-width:1;marker:none;enable-background:accumulate" />
      <g
         transform="translate(212.50003,-347.99968)"
         fill="#808080"
         id="g1259"
         style="fill:#ffffff">
        <path
           d="m 117,540 c -1.1043,0 -1.9996,1.0964 -2,2.4492 v 0.55078 l 2.8574,5 -2.8574,5 v 0.55078 c 3.5e-4,1.3528 0.89568,2.4492 2,2.4492 h 5.0001 c 1.1043,0 1.9996,-1.0964 2,-2.4492 v -0.55078 l -2.8399,-5 2.8399,-5 v -0.55078 c -3.5e-4,-1.3528 -0.89568,-2.4492 -2,-2.4492 z m 2.0254,1.0117 c 1.3676,-6e-5 1.7391,0.014 3.1016,0.0469 0.67682,0.17004 0.86793,1.018 0.83203,1.6367 -1.0012,1.7695 -2.9591,5.3047 -2.9591,5.3047 0,0 2.1352,3.4832 2.9591,5.3047 0.0359,0.61876 -0.15521,1.4667 -0.83203,1.6367 -2.7251,0.0657 -2.4862,0.0535 -5.1798,0.0117 -0.72645,-0.13044 -0.95349,-1.0129 -0.92579,-1.6504 0.96305,-1.7934 2.9785,-5.3028 2.9785,-5.3028 0,0 -2.1426,-3.4783 -2.9785,-5.3027 -0.0277,-0.63749 0.19934,-1.52 0.92579,-1.6504 1.3468,-0.0209 0.71053,-0.0351 2.0781,-0.0352 z"
           id="path1251"
           style="fill:#ffffff" />
        <path
           d="m 117.75,544 1.7461,3.4375 L 121.25,544 Z m 1.75,5 -0.39453,3.0254 c -1.2117,0.15729 -2.1019,0.99363 -2.1016,1.9746 h 5 c 10e-4,-0.0339 10e-4,-0.0677 0,-0.10156 -0.0615,-0.94679 -0.94648,-1.729 -2.1191,-1.873 z"
           id="path1253"
           style="fill:#ffffff" />
        <rect
           x="114"
           y="540"
           width="11"
           height="1"
           rx="0.5"
           ry="0.5"
           id="rect1255"
           style="fill:#ffffff" />
        <rect
           x="114"
           y="555"
           width="11"
           height="1"
           rx="0.5"
           ry="0.5"
           id="rect1257"
           style="fill:#ffffff" />
      </g>
    </g>
    <g
       inkscape:groupmode="layer"
       id="layer6"
       inkscape:label="Pictograms and folds"
       style="display:inline" />
    <g
       inkscape:groupmode="layer"
       id="layer4"
       inkscape:label="Borders"
       style="display:inline;opacity:1">
      <path
         style="color:#000000;display:inline;overflow:visible;visibility:visible;opacity:0.4;fill:none;fill-opacity:1;fill-rule:nonzero;stroke:#000000;stroke-width:1;stroke-miterlimit:4;stroke-dasharray:none;stroke-opacity:1;marker:none;enable-background:accumulate"
         d="m 337.97659,211.50015 c 4.67187,0 5.5471,-0.42296 5.52255,-4.54923 v -7.95037 -5.95084 c 0.0245,-4.12627 -0.85068,-4.54923 -5.52255,-4.54923 h -11.95364 c -4.67071,0 -5.52256,0.42291 -5.52256,4.54923 v 5.95084 7.95037 c 0,4.12632 0.85185,4.54923 5.52256,4.54923 z"
         id="path958-6"
         inkscape:connector-curvature="0"
         sodipodi:nodetypes="scccssscsss" />
    </g>
    <g
       inkscape:groupmode="layer"
       id="layer5"
       inkscape:label="Highlights"
       style="display:inline;opacity:0.7">
      <path
         style="color:#000000;display:inline;overflow:visible;visibility:visible;opacity:0.6;fill:url(#linearGradient1690-9);fill-opacity:1;fill-rule:nonzero;stroke:none;stroke-width:1;marker:none;enable-background:accumulate"
         d="m 326.02383,189.00048 c -2.32027,0 -3.60941,0.15494 -4.20703,0.62109 -0.29882,0.23308 -0.48964,0.54668 -0.625,1.09571 -0.13541,0.54902 -0.19141,1.31765 -0.19141,2.33203 v 5.95117 7.95084 c 0,1.01437 0.056,1.783 0.19141,2.33203 0.13536,0.54903 0.32618,0.86263 0.625,1.09571 0.59762,0.46615 1.88676,0.62109 4.20703,0.62109 h 11.9524 c 2.32085,0 3.61652,-0.15457 4.2168,-0.62109 0.30014,-0.23327 0.49095,-0.54754 0.625,-1.09571 0.13404,-0.54816 0.18764,-1.31623 0.18164,-2.33008 v -7.95279 -5.95312 c 0.006,-1.01386 -0.0476,-1.78191 -0.18164,-2.33008 -0.13406,-0.54817 -0.32486,-0.86244 -0.625,-1.09571 -0.60028,-0.46652 -1.89595,-0.62109 -4.2168,-0.62109 z m 4.95859,1.00977 c 1.5798,-0.002 4.16014,-3.9e-4 5.73991,0.0117 1.50021,0.0511 3.02236,-0.0712 4.5,0.28321 0.55111,0.0919 0.61303,0.71807 0.67773,1.16601 0.1117,4.30832 0.075,10.62608 0.0508,14.94108 -0.0716,0.99089 0.13687,2.07606 -0.30078,3.01366 -0.34356,0.40964 -0.9694,0.35958 -1.45117,0.45509 -3.95407,0.0823 -9.92936,0.0499 -13.89381,0.0371 -1.16908,-0.0622 -2.37292,0.11291 -3.51758,-0.22266 -0.57935,-0.098 -0.6137,-0.75914 -0.6875,-1.2207 -0.1146,-4.11835 -0.0751,-10.24472 -0.0547,-14.36881 0.0572,-1.06305 -0.0797,-2.16734 0.18164,-3.21485 0.10495,-0.6386 0.8614,-0.66043 1.36719,-0.74023 2.1305,-0.19658 5.24071,-0.10662 7.38828,-0.14062 z"
         id="path914-6"
         inkscape:connector-curvature="0"
         sodipodi:nodetypes="sccscsccsscccccccssccccccccccccccc" />
    </g>
  </g>
</svg>
