<?xml version="1.0" encoding="UTF-8" standalone="no"?>
<!-- Created with Inkscape (http://www.inkscape.org/) -->

<svg
   width="8.4666662mm"
   height="8.4663715mm"
   viewBox="0 0 8.4666672 8.4663715"
   version="1.1"
   id="svg8"
   sodipodi:docname="base.svg"
   inkscape:version="1.1.2 (0a00cf5339, 2022-02-04)"
   inkscape:export-filename="/home/carson/Xtra/Shock OS/menu-logos/96x96 places/start-here-symbolic.symbolic.png"
   inkscape:export-xdpi="25.417118"
   inkscape:export-ydpi="25.417118"
   xmlns:inkscape="http://www.inkscape.org/namespaces/inkscape"
   xmlns:sodipodi="http://sodipodi.sourceforge.net/DTD/sodipodi-0.dtd"
   xmlns="http://www.w3.org/2000/svg"
   xmlns:svg="http://www.w3.org/2000/svg"
   xmlns:rdf="http://www.w3.org/1999/02/22-rdf-syntax-ns#"
   xmlns:cc="http://creativecommons.org/ns#"
   xmlns:dc="http://purl.org/dc/elements/1.1/">
  <defs
     id="defs2" />
  <sodipodi:namedview
     id="base"
     pagecolor="#ffffff"
     bordercolor="#666666"
     borderopacity="1.0"
     inkscape:pageopacity="0.0"
     inkscape:pageshadow="2"
     inkscape:zoom="0.35"
     inkscape:cx="220"
     inkscape:cy="431.42857"
     inkscape:document-units="mm"
     inkscape:current-layer="layer1"
     showgrid="false"
     inkscape:window-width="1920"
     inkscape:window-height="1008"
     inkscape:window-x="0"
     inkscape:window-y="0"
     inkscape:window-maximized="1"
     inkscape:pagecheckerboard="0" />
  <metadata
     id="metadata5">
    <rdf:RDF>
      <cc:Work
         rdf:about="">
        <dc:format>image/svg+xml</dc:format>
        <dc:type
           rdf:resource="http://purl.org/dc/dcmitype/StillImage" />
      </cc:Work>
    </rdf:RDF>
  </metadata>
  <g
     inkscape:label="Layer 1"
     inkscape:groupmode="layer"
     id="layer1"
     transform="translate(-28.096254,-188.19025)">
    <path
       style="fill:#000000;fill-opacity:1;stroke-width:0.364473;stroke-linecap:square;stroke-linejoin:round;stroke-miterlimit:4;stroke-dasharray:none"
       d="m 28.801835,196.65295 c -0.160582,-0.0327 -0.245142,-0.19923 -0.17015,-0.33521 0.0168,-0.0305 0.542129,-0.90073 1.1674,-1.93392 0.625271,-1.03319 1.132879,-1.88237 1.128017,-1.88707 -0.0049,-0.005 -0.586317,-0.0749 -1.292126,-0.15592 -0.705809,-0.0811 -1.308891,-0.15202 -1.340183,-0.15769 -0.129734,-0.0235 -0.225706,-0.17001 -0.191596,-0.29243 0.0098,-0.0353 0.04625,-0.0958 0.08094,-0.1344 0.03469,-0.0387 0.695511,-0.8435 1.468501,-1.7886 1.207086,-1.47584 1.414891,-1.7225 1.472411,-1.74776 0.06391,-0.0281 0.166778,-0.0294 2.243973,-0.0297 1.519575,-1.8e-4 2.196607,0.005 2.241919,0.0171 0.0832,0.0223 0.150109,0.0874 0.176096,0.17121 0.0418,0.13486 0.06655,0.10755 -1.126968,1.24328 l -1.092987,1.04007 0.07894,0.005 c 0.04341,0.003 0.668749,-0.003 1.389627,-0.0127 1.444327,-0.0201 1.378486,-0.0235 1.467215,0.0784 0.02461,0.0283 0.04939,0.0693 0.05505,0.091 0.01475,0.0568 -0.0044,0.15055 -0.04031,0.19754 -0.05565,0.0728 -7.538532,5.61325 -7.601907,5.62861 -0.03187,0.008 -0.0831,0.009 -0.113853,0.003 z m 3.226219,-2.89568 c 1.17914,-0.87444 2.449335,-1.81612 2.822652,-2.09262 0.780217,-0.57788 0.694628,-0.51262 0.684724,-0.52219 -0.0043,-0.004 -0.897665,0.004 -1.985236,0.0185 -1.087573,0.0143 -2.004019,0.0213 -2.036549,0.0153 -0.07515,-0.0137 -0.158549,-0.0919 -0.183419,-0.17217 -0.02467,-0.0796 2.75e-4,-0.16707 0.06423,-0.22536 0.02525,-0.023 0.768529,-0.49673 1.651745,-1.05273 0.883217,-0.556 1.612925,-1.01751 1.621577,-1.02559 0.0095,-0.009 -0.642596,-0.0147 -1.658041,-0.0147 h -1.673769 l -1.227523,1.50009 -1.227522,1.5001 1.388059,0.008 c 1.301952,0.007 1.390885,0.01 1.43364,0.0369 0.12038,0.0762 0.142918,0.21648 0.05816,0.36186 -0.02863,0.0491 -0.490523,0.81467 -1.026418,1.70123 -0.535897,0.88657 -0.974357,1.61981 -0.974357,1.62945 0,0.01 0.02793,-0.003 0.06208,-0.0294 0.03415,-0.0258 1.026833,-0.76236 2.205972,-1.63681 z m 1.183692,-3.43245 c 0.209423,-0.19845 0.369594,-0.35525 0.355937,-0.34844 -0.04052,0.0202 -1.082955,0.67853 -1.100089,0.69474 -0.0097,0.009 0.05671,0.0148 0.173828,0.0147 l 0.189557,-1.7e-4 0.380767,-0.36081 z"
       id="path1590" />
  </g>
</svg>
