<?xml version="1.0" encoding="UTF-8" standalone="no"?>
<!-- Created with Inkscape (http://www.inkscape.org/) -->

<svg
   width="33.866665mm"
   height="33.8666mm"
   viewBox="0 0 33.866667 33.866598"
   version="1.1"
   id="svg8"
   sodipodi:docname="base.svg"
   inkscape:version="1.1.2 (0a00cf5339, 2022-02-04)"
   inkscape:export-filename="/home/carson/Xtra/Shock OS/menu-logos/96x96 places/start-here-symbolic.symbolic.png"
   inkscape:export-xdpi="25.417118"
   inkscape:export-ydpi="25.417118"
   xmlns:inkscape="http://www.inkscape.org/namespaces/inkscape"
   xmlns:sodipodi="http://sodipodi.sourceforge.net/DTD/sodipodi-0.dtd"
   xmlns="http://www.w3.org/2000/svg"
   xmlns:svg="http://www.w3.org/2000/svg"
   xmlns:rdf="http://www.w3.org/1999/02/22-rdf-syntax-ns#"
   xmlns:cc="http://creativecommons.org/ns#"
   xmlns:dc="http://purl.org/dc/elements/1.1/">
  <defs
     id="defs2" />
  <sodipodi:namedview
     id="base"
     pagecolor="#ffffff"
     bordercolor="#666666"
     borderopacity="1.0"
     inkscape:pageopacity="0.0"
     inkscape:pageshadow="2"
     inkscape:zoom="0.35"
     inkscape:cx="217.14286"
     inkscape:cy="431.42857"
     inkscape:document-units="mm"
     inkscape:current-layer="layer1"
     showgrid="false"
     inkscape:window-width="1920"
     inkscape:window-height="1008"
     inkscape:window-x="0"
     inkscape:window-y="0"
     inkscape:window-maximized="1"
     inkscape:pagecheckerboard="0" />
  <metadata
     id="metadata5">
    <rdf:RDF>
      <cc:Work
         rdf:about="">
        <dc:format>image/svg+xml</dc:format>
        <dc:type
           rdf:resource="http://purl.org/dc/dcmitype/StillImage" />
      </cc:Work>
    </rdf:RDF>
  </metadata>
  <g
     inkscape:label="Layer 1"
     inkscape:groupmode="layer"
     id="layer1"
     transform="translate(-28.096254,-188.19028)">
    <path
       style="fill:#000000;fill-opacity:1;stroke-width:1.45789;stroke-linecap:square;stroke-linejoin:round;stroke-miterlimit:4;stroke-dasharray:none"
       d="m 30.918577,222.04093 c -0.642324,-0.13054 -0.980567,-0.79691 -0.680601,-1.34084 0.0672,-0.12185 2.168517,-3.6029 4.6696,-7.73567 2.501085,-4.13276 4.531518,-7.52949 4.512073,-7.54828 -0.01944,-0.0188 -2.34527,-0.29945 -5.168507,-0.62367 -2.823238,-0.32423 -5.235566,-0.60808 -5.360729,-0.63078 -0.51894,-0.0941 -0.902824,-0.68001 -0.766389,-1.16973 0.03932,-0.14115 0.185013,-0.38307 0.323753,-0.53759 0.13874,-0.15453 2.782043,-3.374 5.874006,-7.15438 4.828347,-5.90337 5.659562,-6.89002 5.889644,-6.99103 0.255612,-0.11222 0.66711,-0.11766 8.975894,-0.11866 6.078299,-7.1e-4 8.786426,0.02 8.967675,0.0686 0.332818,0.0893 0.600436,0.3495 0.704384,0.68485 0.167211,0.53941 0.266223,0.43019 -4.50787,4.97311 l -4.371953,4.16026 0.315754,0.0217 c 0.173662,0.0119 2.674995,-0.011 5.55851,-0.051 5.777306,-0.0801 5.513943,-0.0941 5.868859,0.31353 0.09847,0.11311 0.197561,0.277 0.220206,0.3642 0.059,0.22722 -0.01752,0.60218 -0.161266,0.79014 -0.222624,0.29111 -30.154132,22.45306 -30.407631,22.51448 -0.127475,0.0309 -0.33241,0.0357 -0.455412,0.0107 z m 12.904878,-11.5827 c 4.716561,-3.49776 9.79734,-7.26448 11.29061,-8.37051 3.120869,-2.31152 2.778513,-2.05044 2.738897,-2.08873 -0.01724,-0.0166 -3.590661,0.0167 -7.94095,0.0742 -4.35029,0.0575 -8.016075,0.0852 -8.146193,0.0615 -0.300609,-0.0546 -0.634196,-0.36776 -0.733679,-0.68868 -0.09871,-0.31846 0.0011,-0.66827 0.2569,-0.90144 0.100975,-0.092 3.074115,-1.9869 6.60698,-4.21091 3.532869,-2.224 6.451706,-4.07005 6.486308,-4.10234 0.03817,-0.0356 -2.570383,-0.0587 -6.632164,-0.0587 h -6.695076 l -4.910091,6.00037 -4.91009,6.00038 5.552237,0.032 c 5.207811,0.03 5.563541,0.0392 5.734561,0.14748 0.481521,0.305 0.571673,0.86592 0.232632,1.44744 -0.11454,0.19646 -1.962093,3.25868 -4.105673,6.80493 -2.143586,3.54624 -3.897426,6.47925 -3.897426,6.51778 0,0.0385 0.111747,-0.0144 0.248327,-0.11759 0.13658,-0.10321 4.107333,-3.04945 8.82389,-6.54722 z m 4.734771,-13.72981 c 0.837689,-0.79379 1.478376,-1.42098 1.423745,-1.39375 -0.162084,0.0808 -4.331822,2.71409 -4.400357,2.77895 -0.03887,0.0368 0.226823,0.0592 0.695312,0.0588 l 0.758229,-7e-4 1.523071,-1.44326 z"
       id="path1590" />
  </g>
</svg>
