<?xml version="1.0" encoding="UTF-8" standalone="no"?>
<svg
   height="32.0354"
   width="32"
   version="1.1"
   id="svg200"
   sodipodi:docname="icon.svg"
   inkscape:version="1.1.2 (0a00cf5339, 2022-02-04)"
   xmlns:inkscape="http://www.inkscape.org/namespaces/inkscape"
   xmlns:sodipodi="http://sodipodi.sourceforge.net/DTD/sodipodi-0.dtd"
   xmlns:xlink="http://www.w3.org/1999/xlink"
   xmlns="http://www.w3.org/2000/svg"
   xmlns:svg="http://www.w3.org/2000/svg">
  <defs
     id="defs204">
    <filter
       style="color-interpolation-filters:sRGB"
       inkscape:label="Drop Shadow"
       id="filter1136"
       x="-0.10172671"
       y="-0.087365827"
       width="1.2786919"
       height="1.2345243">
      <feFlood
         flood-opacity="0.498039"
         flood-color="rgb(0,0,0)"
         result="flood"
         id="feFlood1126" />
      <feComposite
         in="flood"
         in2="SourceGraphic"
         operator="in"
         result="composite1"
         id="feComposite1128" />
      <feGaussianBlur
         in="composite1"
         stdDeviation="3"
         result="blur"
         id="feGaussianBlur1130" />
      <feOffset
         dx="6"
         dy="6"
         result="offset"
         id="feOffset1132" />
      <feComposite
         in="SourceGraphic"
         in2="offset"
         operator="over"
         result="composite2"
         id="feComposite1134" />
    </filter>
    <linearGradient
       inkscape:collect="always"
       xlink:href="#b"
       id="linearGradient969"
       gradientUnits="userSpaceOnUse"
       gradientTransform="matrix(1.0238095,0,0,1.0119048,-1.142857,-98.071429)"
       x1="32.251034"
       y1="6.1317081"
       x2="32.251034"
       y2="90.238609" />
    <linearGradient
       inkscape:collect="always"
       xlink:href="#b"
       id="linearGradient971"
       gradientUnits="userSpaceOnUse"
       gradientTransform="matrix(1.0238095,0,0,1.0119048,-1.142857,-98.071429)"
       x1="32.251034"
       y1="6.1317081"
       x2="32.251034"
       y2="90.238609" />
    <linearGradient
       inkscape:collect="always"
       xlink:href="#b"
       id="linearGradient973"
       gradientUnits="userSpaceOnUse"
       gradientTransform="matrix(1.0238095,0,0,1.0119048,-1.142857,-98.071429)"
       x1="32.251034"
       y1="6.1317081"
       x2="32.251034"
       y2="90.238609" />
    <linearGradient
       inkscape:collect="always"
       xlink:href="#b"
       id="linearGradient975"
       gradientUnits="userSpaceOnUse"
       gradientTransform="matrix(1.0238095,0,0,1.0119048,-1.142857,-98.071429)"
       x1="32.251034"
       y1="6.1317081"
       x2="32.251034"
       y2="90.238609" />
    <linearGradient
       inkscape:collect="always"
       xlink:href="#u"
       id="linearGradient977"
       gradientUnits="userSpaceOnUse"
       x1="21.135679"
       y1="-33.245007"
       x2="21.135679"
       y2="8.8861704" />
  </defs>
  <sodipodi:namedview
     id="namedview202"
     pagecolor="#ffffff"
     bordercolor="#666666"
     borderopacity="1.0"
     inkscape:pageshadow="2"
     inkscape:pageopacity="0.0"
     inkscape:pagecheckerboard="0"
     showgrid="false"
     inkscape:zoom="4.3229166"
     inkscape:cx="46.033735"
     inkscape:cy="39.093976"
     inkscape:window-width="1920"
     inkscape:window-height="1012"
     inkscape:window-x="0"
     inkscape:window-y="0"
     inkscape:window-maximized="1"
     inkscape:current-layer="svg200" />
  <linearGradient
     id="a"
     gradientUnits="userSpaceOnUse"
     x1="48"
     x2="48"
     y1="90"
     y2="5.9877172">
    <stop
       offset="0"
       stop-color="#e6e6e6"
       id="stop2" />
    <stop
       offset="1"
       stop-color="#f5f5f5"
       id="stop4" />
  </linearGradient>
  <linearGradient
     id="b"
     gradientTransform="matrix(1.0058652,0,0,0.994169,100,0)"
     gradientUnits="userSpaceOnUse"
     x1="45.447727"
     x2="45.447727"
     y1="92.539597"
     y2="7.0165401">
    <stop
       offset="0"
       id="stop7" />
    <stop
       offset="1"
       stop-opacity=".588235"
       id="stop9" />
  </linearGradient>
  <linearGradient
     id="c"
     gradientTransform="matrix(1.0238095,0,0,1.0119048,-1.142857,-98.071429)"
     gradientUnits="userSpaceOnUse"
     x1="32.251034"
     x2="32.251034"
     xlink:href="#b"
     y1="6.1317081"
     y2="90.238609" />
  <linearGradient
     id="d"
     gradientTransform="translate(0,-97)"
     gradientUnits="userSpaceOnUse"
     x1="32.251034"
     x2="32.251034"
     xlink:href="#b"
     y1="6.1317081"
     y2="90.238609" />
  <linearGradient
     id="e">
    <stop
       offset="0"
       stop-color="#fefefe"
       id="stop14" />
    <stop
       offset="1"
       stop-color="#fefefe"
       stop-opacity="0"
       id="stop16" />
  </linearGradient>
  <linearGradient
     id="f"
     gradientUnits="userSpaceOnUse"
     x1="36.357143"
     x2="36.357143"
     xlink:href="#e"
     y1="6"
     y2="63.893143" />
  <clipPath
     id="g">
    <rect
       height="84"
       rx="6"
       width="84"
       x="6"
       y="6"
       id="rect20" />
  </clipPath>
  <filter
     id="h"
     color-interpolation-filters="sRGB"
     height="1.3915758"
     width="1.3915758"
     x="-0.19578789"
     y="-0.19578789">
    <feGaussianBlur
       stdDeviation="5.28"
       id="feGaussianBlur23" />
  </filter>
  <linearGradient
     id="i"
     gradientUnits="userSpaceOnUse"
     x1="48"
     x2="48"
     xlink:href="#e"
     y1="20.220806"
     y2="138.66119" />
  <radialGradient
     id="j"
     cx="-115.875"
     cy="83.875"
     gradientTransform="matrix(0.5205991,0.06959017,-0.01751151,0.12779866,109.61027,8.671592)"
     gradientUnits="userSpaceOnUse"
     r="67.5"
     xlink:href="#e" />
  <linearGradient
     id="k"
     gradientTransform="matrix(0.52534521,0,0,0.51888177,108.69145,-32.518568)"
     gradientUnits="userSpaceOnUse"
     x1="-194.30229"
     x2="-165.21609"
     xlink:href="#l"
     y1="101.09235"
     y2="93.298721" />
  <linearGradient
     id="l">
    <stop
       offset="0"
       stop-color="#939393"
       id="stop29" />
    <stop
       offset="1"
       stop-color="#3c3c3c"
       id="stop31" />
  </linearGradient>
  <linearGradient
     id="m"
     gradientTransform="matrix(0.52534521,0,0,0.51888177,108.69145,-32.518568)"
     gradientUnits="userSpaceOnUse"
     x1="-62.302292"
     x2="-39.238255"
     xlink:href="#l"
     y1="99.592354"
     y2="99.592354" />
  <clipPath
     id="n">
    <path
       d="m 65.116,104.79364 h 137 l -4,13 15.26039,9.55857 -158.71154,-0.41886 10.45115,-2.13971 4,-7 c 0,0 0,-7 -4,-13 z"
       id="path35" />
  </clipPath>
  <filter
     id="o"
     color-interpolation-filters="sRGB"
     height="2.6440001"
     width="1.036"
     x="-0.018000001"
     y="-0.82200003">
    <feGaussianBlur
       stdDeviation="1.0275"
       id="feGaussianBlur38" />
  </filter>
  <clipPath
     id="p">
    <path
       d="M 68.481337,247.42563 H 221.07889 c 2.26554,0 4.09217,-1.82388 4.08941,-4.08942 L 220,188 l 5,-83 c 0,0 -1.65557,-0.20636 -3.92111,-0.20636 H 68.481337 C 66.215801,104.79364 65,105 65,105 l 3,83 -3.608078,55.33621 c -0.147407,2.26074 1.823879,4.08942 4.089415,4.08942 z"
       id="path41" />
  </clipPath>
  <filter
     id="q"
     color-interpolation-filters="sRGB"
     height="4.7680001"
     width="1.0241538"
     x="-0.012076923"
     y="-1.8840001">
    <feGaussianBlur
       stdDeviation=".785"
       id="feGaussianBlur44" />
  </filter>
  <linearGradient
     id="r"
     gradientTransform="matrix(0.52534521,0,0,0.51888177,108.69145,-32.518568)"
     gradientUnits="userSpaceOnUse"
     x1="-184"
     x2="-37.873104"
     y1="94.069855"
     y2="94.069855">
    <stop
       offset="0"
       id="stop47" />
    <stop
       offset=".35548571"
       stop-opacity="0"
       id="stop49" />
    <stop
       offset=".85379565"
       stop-opacity="0"
       id="stop51" />
    <stop
       offset="1"
       id="stop53" />
  </linearGradient>
  <linearGradient
     id="s"
     gradientTransform="matrix(0.5251124,0,0,0.51888177,-27.901625,-32.518568)"
     gradientUnits="userSpaceOnUse"
     x1="102.69451"
     x2="104.80684"
     y1="79.524734"
     y2="123.6992">
    <stop
       offset="0"
       stop-color="#d3d3d3"
       id="stop56" />
    <stop
       offset="1"
       stop-color="#6b6b6b"
       id="stop58" />
  </linearGradient>
  <linearGradient
     id="t"
     gradientUnits="userSpaceOnUse"
     x1="21.135679"
     x2="21.135679"
     xlink:href="#u"
     y1="-33.245007"
     y2="8.8861704" />
  <linearGradient
     id="u">
    <stop
       offset="0"
       stop-color="#e2e4e0"
       id="stop62" />
    <stop
       offset="1"
       stop-color="#d0d2cc"
       stop-opacity="0"
       id="stop64" />
  </linearGradient>
  <filter
     id="v"
     color-interpolation-filters="sRGB"
     x="-0.02336233"
     y="-0.046689578"
     width="1.0467247"
     height="1.0933792">
    <feGaussianBlur
       stdDeviation=".20396145"
       id="feGaussianBlur67" />
  </filter>
  <linearGradient
     id="w"
     gradientTransform="matrix(0.52534523,0,0,0.51888178,108.69145,-32.518567)"
     gradientUnits="userSpaceOnUse"
     x1="-115.47562"
     x2="-115.47562"
     y1="83.292076"
     y2="74.656006">
    <stop
       offset="0"
       stop-color="#6f6f6f"
       id="stop70" />
    <stop
       offset="1"
       stop-color="#989898"
       id="stop72" />
  </linearGradient>
  <linearGradient
     id="x"
     gradientTransform="matrix(0.52534523,0,0,0.51888178,-27.898274,-42.896371)"
     gradientUnits="userSpaceOnUse"
     x1="143.10715"
     x2="143.10715"
     xlink:href="#y"
     y1="115.48645"
     y2="120.04162" />
  <linearGradient
     id="y">
    <stop
       offset="0"
       stop-color="#afada2"
       id="stop76" />
    <stop
       offset="1"
       stop-color="#aaafa2"
       stop-opacity="0"
       id="stop78" />
  </linearGradient>
  <linearGradient
     id="z"
     gradientUnits="userSpaceOnUse"
     x1="21.135679"
     x2="21.135679"
     xlink:href="#u"
     y1="-13.244676"
     y2="28.886499" />
  <linearGradient
     id="A"
     gradientTransform="matrix(0.5324195,0,0,0.5187331,-29.045493,-34.220908)"
     gradientUnits="userSpaceOnUse"
     x1="143.10715"
     x2="143.10715"
     xlink:href="#y"
     y1="115.48645"
     y2="120.04162" />
  <filter
     id="B"
     color-interpolation-filters="sRGB"
     height="1.5033129"
     width="1.2518456"
     x="-0.12592278"
     y="-0.25165646">
    <feGaussianBlur
       stdDeviation="2.0396145"
       id="feGaussianBlur83" />
  </filter>
  <clipPath
     id="C">
    <path
       d="M 0,95.999997 V 156 H 96.000001 V 95.999997 Z M 68,116 c 9.941125,0 18,8.05888 18,18 0,9.94112 -8.058875,18 -18,18 -9.941125,0 -18,-8.05888 -18,-18 0,-9.94112 8.058875,-18 18,-18 z"
       id="path86" />
  </clipPath>
  <linearGradient
     id="D"
     gradientTransform="matrix(0,-1.0996364,1.0996364,0,-4.633307,57.955391)"
     gradientUnits="userSpaceOnUse"
     x1="51.42857"
     x2="90.714287"
     y1="72.785713"
     y2="72.785713">
    <stop
       offset="0"
       stop-color="#0063ff"
       id="stop89" />
    <stop
       offset="1"
       stop-color="#47b0ff"
       id="stop91" />
  </linearGradient>
  <g
     id="g967"
     transform="matrix(0.34758995,0,0,0.34758995,-0.68431771,-0.99650787)">
    <g
       transform="matrix(1,0,0,0.81047962,0,18.010358)"
       id="g106">
      <g
         fill="url(#c)"
         id="g102"
         style="fill:url(#c)">
        <path
           d="M 12,-95.03125 C 6.4889097,-95.03125 1.96875,-90.51109 1.96875,-85 L 2.0571383,-4.6211116 6.2989516,-4.623091 93.75,-4.5085538 94.03125,-85 c 0,-5.51109 -4.52016,-10.03125 -10.03125,-10.03125 z"
           opacity="0.08"
           transform="scale(1,-1)"
           id="path94"
           style="fill:url(#linearGradient969)" />
        <path
           d="m 12,-94.03125 c -4.971633,0 -9.03125,4.059617 -9.03125,9.03125 l 0.088388,79.8336038 4.1256968,0.034061 H 93.015611 L 93.03125,-85 c 0,-4.971633 -4.059617,-9.03125 -9.03125,-9.03125 z"
           opacity="0.1"
           transform="scale(1,-1)"
           id="path96"
           style="fill:url(#linearGradient971)" />
        <path
           d="m 12,-93 c -4.4091333,0 -8,3.590867 -8,8 L 4.044194,-6.2024358 8.0667183,-6.1090568 92.04334,-6.1635853 92,-85 c 0,-4.409133 -3.590867,-8 -8,-8 z"
           opacity="0.2"
           transform="scale(1,-1)"
           id="path98"
           style="fill:url(#linearGradient973)" />
        <path
           d="m 12,-92 h 72 c 3.878,0 7,3.122 7,7 -0.02908,25.963585 0.04794,51.927432 -0.01732,77.8909432 L 9.1273787,-7 5.0441942,-7.0748906 5,-85 c -0.0022,-3.877999 3.122,-7 7,-7 z"
           opacity="0.3"
           transform="scale(1,-1)"
           id="path100"
           style="fill:url(#linearGradient975)" />
      </g>
      <rect
         fill="url(#d)"
         height="84"
         opacity="0.45"
         rx="6"
         transform="scale(1,-1)"
         width="84"
         x="6"
         y="-91"
         id="rect104"
         style="fill:url(#d)" />
    </g>
    <g
       transform="matrix(1,0,0,0.82588873,0,16.623538)"
       id="g112">
      <path
         d="M 89.966213,6.2140442 C 90.050311,32.142281 90,58.071479 90,84 c 0,3.324 -2.676,6 -6,6 H 12 C 8.676,90 6,87.324 6,84 L 6.125,6.324296 c 0,0 57.888375,-0.1102518 83.841213,-0.1102518 z"
         fill="url(#a)"
         id="path108"
         style="fill:url(#a)" />
      <path
         d="M 6.6404807,6.2140442 C 6.6404807,6.2140442 6.0131949,59.413359 6,82 v 2 c 0,0.334721 0.04135,0.6507 0.09375,0.96875 0.0487,0.295596 0.09704,0.596915 0.1875,0.875 0.0099,0.03038 0.02089,0.0636 0.03125,0.09375 0.09886,0.287771 0.23488,0.547452 0.375,0.8125 0.144592,0.273507 0.315616,0.535615 0.5,0.78125 0.184384,0.245635 0.373776,0.473472 0.59375,0.6875 0.439947,0.428056 0.94291,0.814526 1.5,1.09375 0.278545,0.139612 0.573473,0.246947 0.875,0.34375 -0.256202,-0.100222 -0.486711,-0.236272 -0.71875,-0.375 -0.0074,-0.0044 -0.02387,0.0045 -0.03125,0 -0.03193,-0.0193 -0.06229,-0.04251 -0.09375,-0.0625 -0.120395,-0.0767 -0.231023,-0.163513 -0.34375,-0.25 -0.106173,-0.0808 -0.213281,-0.161112 -0.3125,-0.25 C 8.47832,88.557317 8.30879,88.373362 8.15625,88.1875 8.048671,88.057245 7.937856,87.922215 7.84375,87.78125 7.81866,87.74287 7.8053,87.69538 7.78125,87.65625 7.71649,87.553218 7.651022,87.451733 7.59375,87.34375 7.492742,87.149044 7.388075,86.928049 7.3125,86.71875 7.3045,86.69694 7.28891,86.6782 7.28125,86.65625 7.24942,86.5643 7.24545,86.469419 7.21875,86.375 7.188418,86.268382 7.148361,86.171969 7.125,86.0625 7.052121,85.720988 7,85.364295 7,85 V 83 L 7.5303301,7.9164502 88.949747,7.8929779 C 88.949747,7.8929779 89,57.964668 89,83 v 2 c 0,0.364295 -0.05212,0.720988 -0.125,1.0625 -0.04415,0.206893 -0.08838,0.397658 -0.15625,0.59375 -0.0077,0.02195 -0.0233,0.04069 -0.03125,0.0625 -0.06274,0.173739 -0.138383,0.367449 -0.21875,0.53125 -0.04158,0.0828 -0.07904,0.169954 -0.125,0.25 -0.0546,0.09721 -0.126774,0.18835 -0.1875,0.28125 -0.09411,0.140965 -0.204921,0.275995 -0.3125,0.40625 -0.143174,0.17445 -0.303141,0.346998 -0.46875,0.5 -0.01117,0.0102 -0.01998,0.02115 -0.03125,0.03125 -0.138386,0.125556 -0.285091,0.234436 -0.4375,0.34375 -0.102571,0.07315 -0.204318,0.153364 -0.3125,0.21875 -0.0074,0.0045 -0.02384,-0.0044 -0.03125,0 -0.232039,0.138728 -0.462548,0.274778 -0.71875,0.375 0.301527,-0.0968 0.596455,-0.204138 0.875,-0.34375 0.55709,-0.279224 1.060053,-0.665694 1.5,-1.09375 0.219973,-0.214028 0.409366,-0.441865 0.59375,-0.6875 0.184384,-0.245635 0.355408,-0.507743 0.5,-0.78125 0.14012,-0.265048 0.276135,-0.524729 0.375,-0.8125 0.01041,-0.03078 0.02133,-0.06274 0.03125,-0.09375 0.09046,-0.278085 0.1388,-0.579404 0.1875,-0.875 C 89.95865,84.6507 90,84.334721 90,84 V 82 12 L 89.96621,6.2675553 Z"
         fill="url(#f)"
         opacity="0.5"
         id="path110"
         style="fill:url(#f)" />
    </g>
    <g
       stroke-linecap="round"
       id="g124">
      <rect
         height="66"
         rx="12"
         style="opacity:0.5;fill:url(#i);stroke:#fefefe;stroke-width:0.5;filter:url(#h)"
         transform="matrix(0.99588712,0,0,0.84207451,0.197418,15.343257)"
         width="66"
         x="15"
         y="15"
         clip-path="url(#g)"
         id="rect114" />
      <path
         d="m 34.074518,17.766624 4.372758,-9.6974132 c 2.695866,-3.3518154 5.97091,-4.0931874 9.931752,-4.0931874 3.960845,0 7.708416,0.5962725 9.752513,4.0931874 L 62.64074,18.094006"
         fill="none"
         stroke="url(#x)"
         stroke-linejoin="round"
         stroke-width="2.03841"
         id="path116"
         style="stroke:url(#x)" />
      <path
         d="M -8.228532,-4.6881149 0.09505798,-23.377175 c 5.13161002,-6.45969 11.36569002,-7.88849 18.90519202,-7.88849 7.53951,0 14.67305,1.14915 18.56401,7.88849 l 8.58331,19.3200001"
         fill="none"
         filter="url(#v)"
         stroke="url(#t)"
         stroke-linejoin="round"
         stroke-width="1.56169"
         transform="matrix(0.52534521,0,0,0.51888177,38.397338,19.749253)"
         id="path118"
         style="stroke:url(#linearGradient977)" />
      <path
         d="m 34.074518,17.766624 4.372758,-9.6974132 c 2.695866,-3.3518154 5.97091,-4.0931874 9.931752,-4.0931874 3.960845,0 7.708416,0.5962725 9.752513,4.0931874 L 62.64074,18.094006"
         fill="none"
         stroke="url(#w)"
         stroke-linejoin="round"
         stroke-width="2.03841"
         id="path120"
         style="stroke:url(#w)" />
      <path
         d="M -8.228532,-4.6881149 0.09505798,-23.377175 c 5.13161002,-6.45969 11.36569002,-7.88849 18.90519202,-7.88849 7.53951,0 14.67305,1.14915 18.56401,7.88849 l 8.58331,19.3200001"
         fill="none"
         filter="url(#v)"
         stroke="url(#t)"
         stroke-linejoin="round"
         stroke-width="0.780846"
         transform="matrix(0.52534521,0,0,0.51888177,38.397338,19.749253)"
         id="path122"
         style="stroke:url(#t)" />
    </g>
    <path
       d="m 12.027935,10.548445 h 72.214817 l -0.131776,11.415397 -70.871281,0.0725 z"
       fill="url(#s)"
       id="path126"
       style="fill:url(#s)" />
    <path
       d="m 12.027935,10.548445 h 72.214817 l -0.131776,11.415397 -70.871281,0.0725 z"
       fill="url(#r)"
       opacity="0.176471"
       id="path128"
       style="fill:url(#r)" />
    <path
       d="M 14.652227,10.143639 H 81.848403 L 89.915813,22.253853 6.5374724,22.036512 Z"
       fill="none"
       id="path130" />
    <path
       d="m 11.014665,21.856943 h 74.328667 v 0.549273 H 11.014665 Z"
       fill="#fefefe"
       id="path132" />
    <path
       clip-path="url(#p)"
       d="m 67,104.5 v 1 h 156 v -1 z"
       fill="#fefefe"
       filter="url(#q)"
       transform="matrix(0.52534521,0,0,0.51888177,-27.898273,-32.518568)"
       id="path134" />
    <path
       clip-path="url(#n)"
       d="m 65.116,104.79364 2,2 132,1 3,-3 z"
       fill="#989b94"
       filter="url(#o)"
       opacity="0.8"
       transform="matrix(0.52534521,0,0,0.51888177,-22.180446,-43.826891)"
       id="path136" />
    <path
       d="m 84.242752,10.410984 -3.159399,6.117478 3.159351,1.894878 z"
       fill="#e7e9e6"
       id="path138" />
    <path
       d="m 89.915814,21.852573 -8.832461,-5.38897 v 5.38897 z"
       fill="url(#m)"
       id="path140"
       style="fill:url(#m)" />
    <path
       d="M 11.981499,10.415357 15.1409,16.690215 11.981546,18.63612 Z"
       fill="#e7e9e6"
       id="path142" />
    <path
       d="M 6.308437,21.856943 15.1409,16.598485 v 5.258458 z"
       fill="url(#k)"
       id="path144"
       style="fill:url(#k)" />
    <path
       d="m 84.209918,10.51619 -3.126565,6.012272 0.749821,0.441318 z"
       fill="#fefefe"
       id="path146" />
    <path
       d="m 11.999082,10.51619 3.126566,6.012272 -0.749819,0.441318 z"
       fill="#fefefe"
       id="path148" />
    <path
       d="M 12.618947,11.326943 H 83.0152"
       fill="none"
       opacity="0.427152"
       stroke="url(#j)"
       stroke-width="0.407683"
       id="path150"
       style="stroke:url(#j)" />
    <path
       d="M -8.228532,16.179035 0.09505798,-2.5100249 C 5.226668,-8.9697149 11.460748,-10.398505 19.00025,-10.398505 c 7.53951,0 14.67305,1.1491501 18.56401,7.8884801 l 8.58331,19.3199999"
       style="opacity:0.75;fill:none;stroke:#2e3436;stroke-width:3.90423;stroke-linecap:round;stroke-linejoin:round;filter:url(#B)"
       transform="matrix(0.53241947,0,0,0.5187331,38.142852,18.031934)"
       id="path152" />
    <path
       d="m 36.250486,28.386115 a 2.4166449,2.3545228 0 0 1 -2.416644,2.354519 2.4166449,2.3545228 0 0 1 -2.416645,-2.354519 2.4166449,2.3545228 0 0 1 2.416645,-2.354524 2.4166449,2.3545228 0 0 1 2.416644,2.354524 z"
       fill="#fefefe"
       id="path154" />
    <path
       d="m 36.250486,27.348648 a 2.4166449,2.3545228 0 0 1 -2.416644,2.35452 2.4166449,2.3545228 0 0 1 -2.416645,-2.35452 2.4166449,2.3545228 0 0 1 2.416645,-2.354523 2.4166449,2.3545228 0 0 1 2.416644,2.354523 z"
       fill="#60615e"
       id="path156" />
    <path
       d="m 65.001134,28.386115 a 2.4166449,2.3545228 0 0 1 -2.416641,2.354519 2.4166449,2.3545228 0 0 1 -2.416647,-2.354519 2.4166449,2.3545228 0 0 1 2.416647,-2.354524 2.4166449,2.3545228 0 0 1 2.416641,2.354524 z"
       fill="#fefefe"
       id="path158" />
    <path
       d="m 65.001134,27.348648 a 2.4166449,2.3545228 0 0 1 -2.416641,2.35452 2.4166449,2.3545228 0 0 1 -2.416647,-2.35452 2.4166449,2.3545228 0 0 1 2.416647,-2.354523 2.4166449,2.3545228 0 0 1 2.416641,2.354523 z"
       fill="#60615e"
       id="path160" />
    <path
       d="m 33.761822,26.424535 4.43164,-9.694628 c 2.732169,-3.350857 6.051314,-4.092023 10.065492,-4.092023 4.014182,0 7.812218,0.596104 9.883842,4.092023 l 4.569918,10.021923"
       fill="none"
       stroke="url(#A)"
       stroke-linecap="round"
       stroke-linejoin="round"
       stroke-width="2.0518"
       id="path162"
       style="stroke:url(#A)" />
    <path
       d="m 65.001134,27.348648 a 2.4166449,2.3545228 0 0 1 -2.416641,2.35452 2.4166449,2.3545228 0 0 1 -2.416647,-2.35452 2.4166449,2.3545228 0 0 1 2.416647,-2.354523 2.4166449,2.3545228 0 0 1 2.416641,2.354523 z"
       fill="none"
       id="path164" />
    <path
       d="M -8.228532,15.311885 0.09505798,-3.3771749 C 5.226668,-9.8368649 11.460748,-11.265655 19.00025,-11.265655 c 7.53951,0 14.67305,1.14915 18.56401,7.8884801 l 8.58331,19.3199999"
       style="fill:none;stroke:url(#z);stroke-width:1.56169;stroke-linecap:round;stroke-linejoin:round;filter:url(#v)"
       transform="matrix(0.53241947,0,0,0.5187331,38.142852,18.031934)"
       id="path166" />
    <g
       inkscape:label="Layer 1"
       id="layer1"
       transform="matrix(0.51525456,0,0,0.51525456,8.7087083,-62.484137)"
       style="filter:url(#filter1136)">
      <path
         style="fill:#000000;fill-opacity:1;stroke:#000000;stroke-width:1.72894;stroke-linecap:butt;stroke-linejoin:miter;stroke-miterlimit:4;stroke-dasharray:none;stroke-opacity:1"
         d="m 72.799215,194.84075 -42.618944,35.79781 46.614482,5.5278 -40.807638,47.33796 85.291495,-65.29993 -44.483857,6.25922 35.693667,-35.15059 z"
         id="path815"
         inkscape:connector-curvature="0"
         sodipodi:nodetypes="cccccccc" />
      <path
         style="fill:#ffe101;fill-opacity:1;stroke:#000000;stroke-width:1.72894;stroke-linecap:butt;stroke-linejoin:miter;stroke-miterlimit:4;stroke-dasharray:none;stroke-opacity:1"
         d="m 63.128945,189.14073 -32.763442,41.32562 h 36.75898 l -30.952124,52.86566 85.291491,-65.30002 -54.339367,0.73151 45.549177,-29.62277 z"
         id="path815-3"
         inkscape:connector-curvature="0" />
    </g>
  </g>
</svg>
