<?xml version="1.0" encoding="UTF-8" standalone="no"?>
<!-- Created with Inkscape (http://www.inkscape.org/) -->

<svg
   width="48mm"
   height="46.800041mm"
   viewBox="0 0 48 46.800042"
   version="1.1"
   id="svg5"
   inkscape:version="1.1.2 (0a00cf5339, 2022-02-04)"
   sodipodi:docname="shockware-center.svg"
   xmlns:inkscape="http://www.inkscape.org/namespaces/inkscape"
   xmlns:sodipodi="http://sodipodi.sourceforge.net/DTD/sodipodi-0.dtd"
   xmlns="http://www.w3.org/2000/svg"
   xmlns:svg="http://www.w3.org/2000/svg">
  <sodipodi:namedview
     id="namedview7"
     pagecolor="#ffffff"
     bordercolor="#666666"
     borderopacity="1.0"
     inkscape:pageshadow="2"
     inkscape:pageopacity="0.0"
     inkscape:pagecheckerboard="0"
     inkscape:document-units="mm"
     showgrid="false"
     inkscape:zoom="2.9576319"
     inkscape:cx="90.951142"
     inkscape:cy="91.289251"
     inkscape:window-width="1920"
     inkscape:window-height="1012"
     inkscape:window-x="0"
     inkscape:window-y="0"
     inkscape:window-maximized="1"
     inkscape:current-layer="layer1" />
  <defs
     id="defs2" />
  <g
     inkscape:label="Layer 1"
     inkscape:groupmode="layer"
     id="layer1"
     transform="translate(-62.871996,-201.51178)">
    <g
       id="g1470"
       transform="matrix(9.0708656,0,0,9.0708656,-507.43143,-1626.3744)">
      <path
         fill="#e4e4e4"
         d="m 64.72408,201.51177 -0.264584,0.26459 v 0.52916 h -1.5875 v 3.96875 c 0,0.14658 0.118004,0.26459 0.264584,0.26459 h 4.7625 c 0.146579,0 0.264583,-0.11801 0.264583,-0.26459 v -3.96875 h -1.5875 v -0.52916 l -0.264583,-0.26459 z m 0,0.26459 h 1.5875 v 0.52916 h -1.5875 z"
         id="path1030"
         style="stroke-width:0.264583" />
      <path
         fill="#ffffff"
         opacity="0.1"
         d="m 64.72408,201.51177 -0.264584,0.26459 v 0.13229 l 0.264584,-0.26459 h 1.5875 l 0.264583,0.26459 v -0.13229 l -0.264583,-0.26459 z m -1.852084,0.79375 v 0.13229 h 1.5875 v -0.13229 z m 1.852084,0 v 0.13229 h 1.5875 v -0.13229 z m 1.852083,0 v 0.13229 h 1.5875 v -0.13229 z"
         id="path1032"
         style="stroke-width:0.264583" />
      <path
         opacity="0.2"
         d="m 64.72408,201.77636 v 0.13229 h 1.5875 v -0.13229 z m -1.852084,4.49791 v 0.13229 c 0,0.14658 0.118004,0.26459 0.264584,0.26459 h 4.7625 c 0.146579,0 0.264583,-0.11801 0.264583,-0.26459 v -0.13229 c 0,0.14658 -0.118004,0.26459 -0.264583,0.26459 h -4.7625 c -0.14658,0 -0.264584,-0.11801 -0.264584,-0.26459 z"
         id="path1034"
         style="stroke-width:0.264583" />
    </g>
    <path
       style="fill:#000000;fill-opacity:1;stroke:#000000;stroke-width:0.541387;stroke-linecap:butt;stroke-linejoin:miter;stroke-miterlimit:4;stroke-dasharray:none;stroke-opacity:1"
       d="m 84.985174,215.58464 -13.345375,11.20946 14.596507,1.73093 -12.778196,14.82305 26.70754,-20.44752 -13.929344,1.95996 11.176846,-11.00679 z"
       id="path815"
       inkscape:connector-curvature="0"
       sodipodi:nodetypes="cccccccc" />
    <path
       style="fill:#ffe101;fill-opacity:1;stroke:#000000;stroke-width:1.041;stroke-linecap:butt;stroke-linejoin:miter;stroke-miterlimit:4;stroke-dasharray:none;stroke-opacity:1"
       d="m 81.957098,213.79978 -10.259297,12.94039 h 11.51043 l -9.692115,16.55396 26.707534,-20.44756 -17.015419,0.22906 14.262925,-9.27585 z"
       id="path815-3"
       inkscape:connector-curvature="0" />
  </g>
</svg>
