<?xml version="1.0" encoding="UTF-8" standalone="no"?>
<!-- Created with Inkscape (http://www.inkscape.org/) -->

<svg
   width="12.700005mm"
   height="12.699852mm"
   viewBox="0 0 12.700006 12.699852"
   version="1.1"
   id="svg8"
   sodipodi:docname="base.svg"
   inkscape:version="1.1.2 (0a00cf5339, 2022-02-04)"
   inkscape:export-filename="/home/carson/Xtra/Shock OS/menu-logos/96x96 places/start-here-symbolic.symbolic.png"
   inkscape:export-xdpi="25.417118"
   inkscape:export-ydpi="25.417118"
   xmlns:inkscape="http://www.inkscape.org/namespaces/inkscape"
   xmlns:sodipodi="http://sodipodi.sourceforge.net/DTD/sodipodi-0.dtd"
   xmlns="http://www.w3.org/2000/svg"
   xmlns:svg="http://www.w3.org/2000/svg"
   xmlns:rdf="http://www.w3.org/1999/02/22-rdf-syntax-ns#"
   xmlns:cc="http://creativecommons.org/ns#"
   xmlns:dc="http://purl.org/dc/elements/1.1/">
  <defs
     id="defs2" />
  <sodipodi:namedview
     id="base"
     pagecolor="#ffffff"
     bordercolor="#666666"
     borderopacity="1.0"
     inkscape:pageopacity="0.0"
     inkscape:pageshadow="2"
     inkscape:zoom="0.35"
     inkscape:cx="220"
     inkscape:cy="431.42857"
     inkscape:document-units="mm"
     inkscape:current-layer="layer1"
     showgrid="false"
     inkscape:window-width="1920"
     inkscape:window-height="1008"
     inkscape:window-x="0"
     inkscape:window-y="0"
     inkscape:window-maximized="1"
     inkscape:pagecheckerboard="0" />
  <metadata
     id="metadata5">
    <rdf:RDF>
      <cc:Work
         rdf:about="">
        <dc:format>image/svg+xml</dc:format>
        <dc:type
           rdf:resource="http://purl.org/dc/dcmitype/StillImage" />
      </cc:Work>
    </rdf:RDF>
  </metadata>
  <g
     inkscape:label="Layer 1"
     inkscape:groupmode="layer"
     id="layer1"
     transform="translate(-28.096254,-188.19028)">
    <path
       style="fill:#000000;fill-opacity:1;stroke-width:0.54671;stroke-linecap:square;stroke-linejoin:round;stroke-miterlimit:4;stroke-dasharray:none"
       d="m 29.154626,200.88429 c -0.240873,-0.049 -0.367713,-0.29885 -0.255226,-0.50282 0.0252,-0.0457 0.813194,-1.35109 1.751101,-2.90088 0.937907,-1.54978 1.699319,-2.82355 1.692027,-2.8306 -0.0073,-0.007 -0.879476,-0.11229 -1.93819,-0.23388 -1.058714,-0.12159 -1.963338,-0.22803 -2.010275,-0.23654 -0.194602,-0.0353 -0.338559,-0.25501 -0.287395,-0.43865 0.01475,-0.0529 0.06938,-0.14365 0.121407,-0.20159 0.05203,-0.058 1.043267,-1.26525 2.202753,-2.6829 1.81063,-2.21376 2.122337,-2.58375 2.208617,-2.62164 0.09586,-0.0421 0.250167,-0.0441 3.365961,-0.0445 2.279363,-2.7e-4 3.294911,0.007 3.36288,0.0257 0.124806,0.0335 0.225163,0.13107 0.264144,0.25682 0.0627,0.20228 0.09983,0.16132 -1.690453,1.86492 l -1.639482,1.5601 0.118408,0.008 c 0.06512,0.005 1.003123,-0.004 2.084441,-0.0191 2.166491,-0.0301 2.06773,-0.0353 2.200823,0.11757 0.03692,0.0424 0.07408,0.10387 0.08258,0.13657 0.02213,0.0852 -0.0066,0.22583 -0.06047,0.29631 -0.08348,0.10916 -11.307802,8.41989 -11.402864,8.44293 -0.04781,0.0116 -0.124654,0.0134 -0.17078,0.004 z m 4.83933,-4.34352 c 1.768711,-1.31166 3.674003,-2.72418 4.23398,-3.13894 1.170326,-0.86682 1.041942,-0.76892 1.027086,-0.78328 -0.0064,-0.006 -1.346498,0.006 -2.977856,0.0278 -1.63136,0.0215 -3.006029,0.0319 -3.054824,0.023 -0.112728,-0.0205 -0.237823,-0.13791 -0.275129,-0.25825 -0.03701,-0.11943 4.13e-4,-0.2506 0.09634,-0.33804 0.03787,-0.0345 1.152793,-0.74509 2.477618,-1.57909 1.324826,-0.834 2.419389,-1.52627 2.432366,-1.53839 0.01432,-0.0134 -0.963894,-0.022 -2.487062,-0.022 h -2.510654 l -1.841285,2.25013 -1.841284,2.25015 2.082089,0.012 c 1.952929,0.0112 2.086328,0.0147 2.150461,0.0553 0.18057,0.11438 0.214377,0.32472 0.08724,0.54279 -0.04295,0.0736 -0.735785,1.22201 -1.539628,2.55185 -0.803845,1.32985 -1.461535,2.42972 -1.461535,2.44417 0,0.0145 0.0419,-0.005 0.09312,-0.0441 0.05122,-0.0387 1.540249,-1.14354 3.308959,-2.45521 z m 1.775539,-5.14868 c 0.314134,-0.29767 0.554391,-0.53287 0.533905,-0.52266 -0.06078,0.0303 -1.624433,1.01779 -1.650134,1.04211 -0.01457,0.0138 0.08506,0.0222 0.260742,0.0221 l 0.284336,-2.6e-4 0.571151,-0.54122 z"
       id="path1590" />
  </g>
</svg>
